P2
100 100
255
0 0 0 0 0 0 0 0 0 0 0 0 0 0 0 0 0 0 0 0 0 0 0 0 0 0 0 0 0 0 0 0 0 0 0 0 0 0 0 0 0 0 0 0 0 0 0 0 0 0 0 0 0 0 0 0 0 0 0 0 0 0 0 0 0 0 0 0 0 0 0 0 0 0 0 0 0 0 0 0 0 0 0 0 0 0 0 0 0 0 0 0 0 0 0 0 0 0 0 0 
0 0 0 0 0 0 0 0 0 0 0 0 83 85 86 84 84 86 91 92 78 72 0 0 0 0 0 0 0 0 0 0 0 0 0 0 0 0 0 0 0 0 0 0 0 0 0 0 0 0 0 0 0 0 0 0 0 0 0 0 0 0 0 0 0 0 0 0 0 0 0 0 0 0 0 0 0 0 0 0 0 0 0 0 0 0 0 0 0 0 0 0 0 0 0 0 0 0 0 0 
0 0 0 0 0 0 0 0 0 0 0 88 86 92 85 79 79 80 92 84 91 92 91 88 91 91 101 164 34 190 190 0 0 0 0 0 0 0 0 0 0 0 0 0 0 0 0 0 0 0 0 0 0 0 0 0 0 0 0 0 0 0 0 0 0 0 0 0 0 0 0 0 0 0 0 0 0 0 0 0 0 0 0 0 0 0 0 0 0 0 0 0 0 0 0 0 0 0 0 0 
0 0 0 0 0 0 0 0 0 0 0 88 86 81 84 79 90 73 86 90 82 88 90 100 86 75 91 90 90 93 90 95 81 93 89 136 152 141 0 190 0 0 0 0 0 0 0 0 0 0 0 0 0 0 0 0 0 0 0 0 0 0 0 0 0 0 0 0 0 0 0 0 0 0 0 0 0 0 0 0 0 0 0 0 0 0 0 0 0 0 0 0 0 0 0 0 0 0 0 0 
0 0 0 0 0 0 0 0 0 0 0 80 99 81 80 83 88 96 81 89 97 92 92 87 89 80 84 86 87 87 76 75 90 70 81 94 93 95 94 96 102 99 97 94 116 101 117 103 0 0 0 0 0 0 0 0 0 0 0 0 0 0 0 0 0 0 0 0 0 0 0 0 0 0 0 0 0 0 0 0 0 0 0 0 0 0 0 0 0 0 0 0 0 0 0 0 0 0 0 0 
0 0 0 0 0 0 0 0 0 0 82 83 81 96 85 96 75 93 91 91 85 95 65 89 87 92 87 86 83 87 88 80 81 80 90 92 91 92 89 95 98 104 102 101 109 114 109 123 116 113 93 107 84 84 125 0 0 0 0 0 0 0 0 0 0 0 0 0 0 0 0 0 0 0 0 0 0 0 0 0 0 0 0 0 0 0 0 0 0 0 0 0 0 0 0 0 0 0 0 0 
0 0 0 0 0 0 0 0 0 0 84 86 85 79 95 82 76 83 89 82 84 73 94 89 87 90 76 93 86 81 87 90 83 96 84 88 91 90 90 94 110 98 99 107 106 108 117 117 111 113 102 138 101 102 90 86 60 57 95 70 86 199 0 0 0 0 0 0 0 0 0 0 0 0 0 0 0 0 0 0 0 0 0 0 0 0 0 0 0 0 0 0 0 0 0 0 0 0 0 0 
0 0 0 0 0 0 0 0 0 0 86 98 83 102 73 82 94 90 79 93 84 95 83 88 89 80 90 97 88 82 84 96 89 83 85 89 85 91 96 95 95 97 98 96 100 109 113 120 113 120 128 99 96 67 82 79 74 78 86 88 80 94 81 0 90 89 90 96 92 0 0 0 0 0 0 0 0 0 0 0 0 0 0 0 0 0 0 0 0 0 0 0 0 0 0 0 0 0 0 0 
0 0 0 0 0 0 0 0 0 0 92 91 83 106 90 75 89 85 120 89 90 97 90 92 91 87 89 83 83 84 90 88 73 110 101 86 90 85 94 91 97 93 98 101 107 106 105 106 122 122 128 101 104 85 77 73 77 75 67 78 77 69 83 88 83 79 93 88 86 88 81 85 76 62 87 77 0 0 0 0 0 0 0 0 0 0 0 0 0 0 0 0 0 0 0 0 0 0 0 0 
0 0 0 0 0 0 0 0 0 80 88 86 86 91 81 83 95 93 86 95 101 83 90 82 86 83 86 73 84 75 90 77 95 83 95 92 94 97 89 93 94 91 95 96 103 100 112 111 122 134 134 140 98 92 82 83 83 65 61 58 80 81 77 77 92 87 74 94 91 86 80 85 79 83 93 80 50 90 89 180 70 83 86 0 0 0 0 0 0 0 0 0 0 0 0 0 0 0 0 0 
0 0 0 0 0 0 0 0 0 92 74 83 102 97 95 97 85 86 95 89 102 90 93 85 92 97 95 85 91 86 88 93 72 96 86 82 93 101 81 106 95 92 98 110 102 115 108 116 127 140 133 111 87 90 73 70 69 71 69 61 71 74 95 95 98 90 93 73 87 94 89 85 80 88 90 78 112 80 98 81 88 95 79 89 89 77 91 0 0 0 0 0 0 0 0 0 0 0 0 0 
0 0 0 0 0 0 0 0 0 105 91 88 86 84 87 83 92 81 88 93 73 95 88 92 85 89 87 75 91 89 94 82 63 85 85 85 91 81 92 87 85 102 104 89 106 109 109 107 128 137 146 153 112 99 99 76 66 68 69 64 67 73 82 113 64 107 94 87 83 85 100 89 91 54 70 73 76 83 86 107 85 106 66 82 86 90 100 85 92 82 202 0 0 0 0 0 0 0 0 0 
0 0 0 0 0 0 0 0 0 89 84 90 93 98 98 96 94 84 97 86 79 83 81 99 83 82 85 80 88 85 74 71 89 89 95 93 90 98 92 99 88 95 91 97 100 108 100 116 105 160 182 132 125 112 81 103 83 57 79 61 51 65 81 79 51 95 105 86 99 85 86 78 79 101 0 88 75 89 77 85 79 75 79 84 102 74 107 84 92 101 70 97 80 90 0 0 0 0 0 0 
0 0 0 0 0 0 0 0 0 93 74 90 87 87 77 85 95 80 87 79 101 97 74 78 96 83 85 83 93 96 89 86 79 94 91 87 92 74 89 89 83 80 64 115 98 97 89 99 119 127 144 171 119 102 92 88 84 98 79 73 75 71 71 119 141 86 77 97 93 88 87 86 91 78 74 89 85 81 82 86 80 84 92 77 87 85 79 90 88 87 75 113 94 83 87 104 94 0 0 0 
0 0 0 0 0 0 0 0 0 88 79 85 76 95 99 78 94 92 81 79 94 94 91 89 81 67 72 88 81 85 79 87 89 98 85 81 96 72 94 90 81 85 94 97 87 92 90 101 103 129 132 173 190 131 89 67 83 74 78 77 76 85 64 79 102 88 90 85 83 91 83 95 100 81 104 83 79 77 82 80 89 81 92 87 83 95 79 88 91 95 89 93 79 83 92 86 106 89 0 0 
0 0 0 0 0 0 0 0 121 84 93 80 85 79 83 92 85 89 83 95 89 82 88 88 90 111 84 83 85 91 89 76 85 82 84 86 81 72 86 91 94 89 88 78 90 92 91 102 75 90 139 115 118 95 66 78 74 77 77 65 69 75 71 72 87 95 60 89 96 102 90 92 89 87 87 83 86 111 101 77 76 78 87 69 109 83 90 92 88 79 87 87 85 86 86 88 93 95 97 74 
0 0 0 0 0 0 0 0 93 79 80 94 96 89 81 80 89 93 87 111 86 94 89 83 79 86 82 100 81 82 80 82 79 83 87 83 82 85 81 86 92 83 86 84 109 77 90 99 93 86 92 158 94 253 110 95 84 58 81 86 83 69 78 68 77 91 78 91 102 90 81 85 100 123 98 62 91 77 81 85 90 82 106 64 76 87 96 79 71 89 78 82 85 84 88 73 78 86 98 83 
0 0 0 0 0 0 0 0 75 94 85 85 85 95 102 90 90 88 81 88 86 96 85 87 86 86 89 92 86 78 92 81 72 80 83 85 88 82 83 77 85 90 88 87 84 87 99 95 104 84 102 111 158 79 103 104 87 89 74 74 84 87 54 95 77 113 69 105 98 97 90 88 91 110 93 82 78 76 86 76 77 97 94 90 112 79 83 45 65 88 98 91 96 83 90 85 80 81 84 112 
0 0 0 0 0 0 0 0 84 85 73 88 86 83 89 95 94 88 86 85 82 93 82 86 87 80 90 85 82 77 76 81 106 84 84 77 85 78 85 80 86 83 75 87 86 91 98 105 85 72 127 120 86 127 90 89 97 79 84 64 77 53 94 51 64 81 87 91 98 90 81 111 103 101 90 89 95 89 76 78 84 91 85 94 89 80 82 85 72 85 85 100 96 87 94 89 87 85 171 95 
0 0 0 0 0 0 0 0 92 98 84 81 94 86 87 84 97 84 83 92 78 88 81 87 90 85 85 85 79 86 84 94 84 73 80 90 96 83 87 81 87 81 91 41 82 86 83 105 106 92 80 115 137 134 128 103 81 63 86 77 73 71 85 74 59 90 76 106 101 85 81 101 98 88 105 92 64 90 82 83 88 109 85 103 89 99 70 87 124 91 95 93 91 90 92 87 91 97 78 85 
0 0 0 0 0 0 0 0 88 99 92 98 94 102 92 83 86 90 89 88 81 81 87 84 84 88 86 90 83 83 78 72 80 92 85 80 55 87 73 89 80 89 58 88 70 87 85 84 91 100 101 114 146 100 101 103 95 89 81 81 92 79 89 98 89 86 73 84 93 94 101 92 98 106 94 80 85 96 89 93 98 95 79 80 82 90 100 93 97 82 84 99 80 88 109 92 75 100 63 91 
0 0 0 0 0 0 0 0 105 101 91 92 93 99 72 92 84 89 82 83 85 83 94 88 83 77 81 91 75 89 90 92 76 81 74 77 73 76 89 78 81 80 100 75 95 83 86 91 113 108 104 106 133 115 117 95 91 60 88 76 80 67 75 84 95 91 79 79 67 97 102 87 88 103 72 101 71 90 121 98 64 86 94 80 57 87 85 57 94 95 66 106 84 85 75 76 88 84 92 98 
0 0 0 0 0 0 0 98 81 66 98 86 87 104 75 88 85 84 90 76 89 75 86 91 96 95 93 87 91 84 77 77 79 88 88 88 88 84 79 83 79 81 85 97 84 80 90 90 74 113 70 122 131 113 112 101 81 86 71 71 86 84 85 89 82 64 101 71 76 70 92 77 85 87 96 89 93 86 82 92 79 82 94 91 90 97 60 85 80 93 95 94 94 86 70 75 91 80 81 85 
0 0 0 0 0 0 0 98 90 99 84 92 88 78 102 91 89 86 83 87 95 85 93 92 78 104 84 97 89 86 92 85 90 87 78 66 71 63 83 79 83 71 82 72 89 86 77 92 85 56 112 127 130 125 122 103 99 107 84 88 89 55 76 137 83 70 94 88 84 99 85 73 100 81 95 83 87 83 84 74 95 91 93 108 83 60 76 87 82 98 91 81 85 90 85 72 69 76 82 105 
0 0 0 0 0 0 0 98 91 86 83 87 100 80 99 88 95 85 91 82 93 90 84 83 98 83 81 83 86 81 92 84 78 78 82 46 82 75 74 76 81 90 82 90 80 84 77 85 111 72 98 106 123 131 98 103 105 87 107 77 83 63 92 81 60 70 73 94 87 84 113 91 78 106 99 85 91 89 92 86 99 97 93 93 81 93 82 73 91 83 89 87 85 85 97 86 78 90 85 93 
0 0 0 0 0 0 0 87 90 87 89 93 91 92 90 90 81 86 93 72 82 97 91 84 94 99 87 87 88 89 73 78 76 79 71 76 80 77 73 75 84 78 79 88 87 80 87 100 83 97 106 103 116 113 123 114 96 94 82 94 78 99 58 79 79 73 92 90 79 92 87 78 74 79 90 76 95 78 79 71 72 76 93 74 95 89 110 100 89 95 92 101 97 90 95 92 83 80 89 84 
0 0 0 0 0 0 0 84 91 89 86 79 79 92 86 93 91 78 86 90 89 95 91 89 82 86 98 90 86 84 82 67 91 76 87 76 90 88 72 79 84 73 74 79 82 88 82 98 72 86 85 109 117 118 108 106 107 88 83 95 73 74 99 56 81 84 104 85 89 89 97 80 70 96 88 68 95 97 90 82 74 101 81 84 86 74 90 86 70 102 104 100 102 90 74 94 88 67 109 92 
0 0 0 0 0 0 0 85 95 86 99 86 92 84 81 84 91 99 87 88 91 81 92 84 90 87 89 80 84 90 65 97 72 99 79 95 78 77 77 77 84 74 78 96 89 83 85 88 88 91 106 111 116 109 133 100 96 97 100 91 79 63 73 95 83 75 90 82 94 90 109 95 94 89 88 88 101 93 87 85 76 100 93 94 91 97 80 91 105 69 82 71 84 87 81 87 68 82 76 147 
0 0 0 0 0 0 121 79 93 94 80 78 108 128 108 88 88 92 92 93 87 92 86 97 84 88 81 92 78 88 91 83 83 85 83 90 91 65 80 78 69 68 82 64 70 86 92 96 95 93 91 103 102 104 101 103 101 119 80 82 81 77 76 73 77 81 90 113 104 47 80 96 55 95 85 78 88 100 86 85 83 78 76 80 85 91 78 95 76 98 92 66 83 80 79 78 75 74 84 0 
0 0 0 0 0 0 98 83 84 89 94 88 79 81 85 84 96 79 91 96 91 92 90 92 88 76 93 85 88 92 87 92 85 80 85 85 81 74 81 68 83 70 78 89 86 72 84 88 92 101 104 96 104 112 111 98 115 90 82 108 120 75 83 91 79 77 89 74 100 84 77 86 95 90 117 79 78 85 96 86 65 91 102 69 86 78 95 90 84 90 105 78 87 88 113 74 84 76 76 0 
0 0 0 0 0 0 98 75 98 87 87 86 91 77 92 84 82 105 78 89 83 86 92 74 90 84 92 91 84 87 89 80 88 83 87 67 97 78 85 91 76 94 64 89 79 63 88 84 92 99 102 104 111 96 103 99 125 88 85 74 80 75 81 106 95 86 95 79 80 90 88 83 76 83 84 121 71 101 70 49 83 78 88 91 86 112 84 88 90 113 83 90 85 88 87 80 95 67 99 0 
0 0 0 0 0 0 90 88 87 82 80 84 92 88 91 97 88 101 86 96 93 94 94 94 81 93 85 99 88 98 98 96 81 93 68 76 72 81 85 87 77 76 95 75 81 83 82 90 86 94 104 96 99 95 106 104 99 103 93 73 92 86 90 72 99 91 76 89 83 114 65 71 96 69 108 70 114 79 66 82 86 78 113 80 78 74 85 83 77 88 89 93 91 102 99 96 95 79 86 0 
0 0 0 0 0 0 90 97 89 88 85 95 98 94 103 88 98 85 91 108 88 95 85 96 85 94 89 90 89 92 106 77 97 86 95 100 73 82 83 86 78 75 77 87 82 63 82 93 94 97 95 103 92 92 98 100 101 104 122 84 76 85 61 94 75 74 87 78 84 88 89 80 81 105 100 101 72 88 82 84 101 85 72 87 88 72 74 86 91 102 77 86 87 100 110 97 86 100 103 3 
0 0 0 0 0 0 90 89 97 91 96 85 97 80 94 99 86 85 97 94 81 92 87 103 87 97 91 84 87 92 90 69 84 89 98 96 97 82 89 87 88 79 81 88 80 91 79 75 104 99 95 100 92 89 101 111 108 85 103 88 85 93 82 82 83 100 65 110 83 94 87 83 93 83 88 86 100 86 85 73 82 91 47 71 83 159 57 85 77 81 103 94 84 66 94 106 98 107 95 0 
0 0 0 0 0 0 90 85 86 94 82 96 97 96 86 100 93 108 80 89 97 95 88 83 88 90 88 87 84 92 92 91 89 93 97 82 93 86 89 92 86 77 67 75 93 90 97 104 94 102 102 81 92 80 95 90 113 112 92 103 96 85 83 76 81 83 80 76 79 84 80 78 81 89 83 97 97 78 79 99 102 69 82 92 87 78 98 79 97 85 85 60 86 84 86 90 104 99 100 0 
0 0 0 0 0 98 104 93 92 86 93 92 102 109 98 99 90 94 92 97 98 89 91 72 102 97 86 85 93 83 106 100 101 84 102 91 100 88 94 100 94 74 86 97 86 93 79 100 92 101 100 95 98 98 95 94 99 104 107 86 89 86 93 87 85 81 105 82 91 75 92 92 79 98 82 84 88 99 77 100 78 90 105 93 95 87 109 62 101 85 85 97 113 109 92 82 93 74 73 0 
0 0 0 0 0 98 76 85 102 95 87 95 96 95 86 98 88 84 76 89 90 102 94 92 87 96 86 100 89 85 92 85 94 90 97 160 82 88 92 90 86 98 90 80 88 94 97 81 98 98 103 120 108 109 88 69 98 90 76 96 89 85 71 97 98 71 80 86 82 93 68 94 90 101 93 96 86 90 86 92 101 89 90 97 87 79 85 62 85 90 79 91 62 91 92 91 75 107 90 0 
0 0 0 0 0 90 91 85 98 92 96 98 101 96 84 88 86 97 98 95 93 91 89 102 94 90 98 98 84 107 76 93 77 92 98 99 85 97 87 102 90 68 94 94 94 93 96 110 106 89 99 107 106 95 111 77 95 87 89 93 93 0 93 86 75 106 94 80 92 99 89 89 84 91 93 82 85 99 87 114 92 88 57 67 115 101 111 84 76 71 96 87 81 85 89 87 94 91 95 0 
0 0 0 0 0 90 93 81 87 85 83 94 89 89 91 88 91 78 93 88 92 92 96 97 99 90 90 78 87 92 101 93 92 81 100 51 78 97 94 94 94 101 103 99 99 99 108 86 103 101 108 107 99 111 114 99 110 93 102 101 90 89 86 87 83 87 95 127 73 80 96 94 99 83 90 96 99 83 80 89 84 104 90 82 77 84 88 89 86 107 91 103 113 74 90 72 104 84 80 0 
0 0 0 0 0 90 98 95 93 104 94 90 97 96 94 83 99 81 76 97 88 96 82 100 103 87 92 100 85 109 89 95 88 88 97 100 80 87 96 80 91 94 104 87 84 85 91 95 104 94 109 82 91 105 113 94 88 97 109 107 103 107 99 95 103 85 77 93 81 84 114 81 97 84 89 90 97 82 100 92 85 101 96 96 87 92 68 96 69 106 112 77 135 88 88 90 87 84 73 0 
0 0 0 0 0 95 81 93 88 70 91 84 101 87 89 83 98 86 82 94 95 94 102 92 100 83 86 89 88 85 90 86 102 89 90 97 91 96 102 101 104 92 98 93 90 95 100 110 110 111 105 114 96 92 92 112 89 98 103 107 93 96 96 102 80 97 91 80 76 88 101 90 51 88 95 83 99 80 78 87 110 107 95 91 103 81 90 95 80 82 91 64 89 101 84 95 74 85 97 0 
0 0 0 0 98 87 81 62 79 87 107 95 98 83 88 83 105 105 88 85 94 96 67 93 80 92 92 93 68 89 95 90 92 94 90 89 78 99 90 89 85 94 96 90 86 68 85 89 103 105 101 101 111 114 119 108 91 87 96 90 105 101 96 93 90 103 89 85 85 109 96 84 89 92 80 101 78 82 101 86 73 87 84 98 88 75 57 87 106 126 77 88 85 92 90 93 90 99 65 0 
0 0 0 0 98 87 62 95 106 77 85 95 93 85 87 85 96 101 74 92 89 94 99 83 82 93 82 94 88 88 102 82 96 100 95 96 96 93 94 92 83 86 86 87 46 96 97 86 92 104 93 101 106 105 103 108 100 96 98 98 111 101 100 97 104 106 81 83 85 106 95 88 93 100 99 90 95 90 78 62 92 98 75 79 81 102 88 85 95 95 115 90 79 94 87 73 83 75 118 0 
0 0 0 0 90 87 89 89 90 87 87 98 88 92 80 97 85 81 89 85 91 99 93 109 75 91 89 90 101 94 88 93 87 102 106 77 97 86 100 97 88 91 89 82 90 90 83 86 100 99 105 97 94 107 111 102 104 104 102 103 104 105 105 88 97 99 92 91 89 97 83 121 85 93 95 85 87 102 112 98 98 91 91 93 106 91 90 76 81 107 90 86 89 88 90 84 83 84 0 0 
0 0 0 0 90 87 90 79 98 74 101 75 75 79 99 88 92 86 93 99 91 86 88 100 89 91 88 78 97 82 93 101 87 99 103 94 97 94 97 105 89 87 92 94 92 83 95 80 92 101 96 95 102 102 100 111 99 95 101 103 99 104 91 96 98 85 87 95 99 86 93 98 99 80 68 97 80 88 81 96 83 93 93 91 87 90 97 94 85 67 87 98 91 83 91 95 83 90 0 0 
0 0 0 0 95 84 106 100 101 95 93 78 88 81 86 67 94 96 90 94 90 94 91 104 99 95 91 78 95 105 80 90 92 96 100 47 97 86 89 86 87 78 87 93 88 89 82 97 87 89 96 86 104 104 100 99 109 112 111 97 105 92 97 110 96 87 96 94 125 86 76 78 97 103 96 90 100 76 87 96 85 92 90 96 91 93 88 91 74 89 89 82 89 98 88 95 97 60 168 0 
0 0 0 0 87 82 86 90 90 90 92 84 101 90 78 89 95 83 94 94 88 95 86 72 98 81 97 110 98 102 94 93 97 96 122 103 98 96 97 80 90 95 95 84 98 82 86 86 92 90 100 90 107 105 108 120 112 118 109 101 100 97 100 95 98 98 103 107 85 97 98 85 85 72 82 81 114 99 92 89 105 109 89 74 101 102 92 106 105 98 89 101 88 86 88 98 91 91 0 0 
0 0 0 121 87 88 97 86 79 101 90 96 90 94 81 88 96 87 86 96 90 107 91 102 76 94 93 85 87 97 94 98 76 97 76 89 94 92 94 90 85 94 93 94 88 74 91 87 87 90 101 94 97 105 75 115 132 100 123 105 108 108 118 110 119 80 105 104 78 97 90 100 86 96 92 98 84 91 109 86 78 91 96 87 81 92 94 91 86 64 86 95 93 96 92 83 108 86 0 0 
0 0 0 98 87 94 83 90 85 96 79 92 96 100 89 92 84 83 88 86 92 98 92 86 92 82 88 88 96 91 95 89 89 119 83 91 87 87 90 88 92 83 96 98 90 74 85 89 87 95 90 115 108 104 96 107 130 102 114 101 117 95 90 113 101 127 96 109 92 89 107 98 87 82 88 104 104 117 88 88 74 97 112 88 92 98 82 92 110 105 93 108 99 94 77 105 92 100 0 0 
0 0 0 90 84 86 86 80 94 89 89 89 105 89 87 92 83 85 88 86 86 80 86 90 88 86 80 96 95 93 89 91 90 82 97 87 95 95 98 86 86 99 88 91 81 87 75 84 84 89 91 81 98 101 101 106 105 107 114 107 122 108 98 112 109 87 102 97 98 98 104 95 89 101 99 104 101 97 101 93 98 90 92 89 93 91 83 103 95 90 89 97 87 110 105 60 67 54 0 0 
0 0 0 87 77 90 73 89 89 94 65 75 96 75 73 98 100 75 91 97 95 107 89 111 101 90 88 70 79 86 82 91 97 90 100 96 85 99 93 97 80 93 96 90 96 94 95 87 85 75 88 83 95 100 104 108 124 104 118 101 113 105 116 99 101 108 103 87 131 101 99 104 90 96 102 95 98 95 100 87 95 100 96 99 91 95 99 95 92 91 87 107 92 95 91 94 92 47 0 0 
0 0 0 87 87 90 83 89 91 79 79 71 87 82 88 82 74 86 96 92 94 99 101 82 90 86 87 94 63 92 84 90 79 92 79 80 95 90 94 78 91 91 88 82 89 88 88 92 89 85 79 89 92 97 98 101 106 131 98 114 108 118 114 121 99 112 109 106 111 90 101 111 98 100 103 95 96 93 105 100 80 96 96 89 95 92 82 95 101 96 99 93 84 99 91 80 96 0 0 0 
0 0 0 87 87 85 92 78 87 103 97 83 99 90 93 83 89 84 87 87 93 94 73 94 93 81 86 84 85 80 100 83 80 82 93 84 92 87 95 84 90 96 87 84 90 87 84 77 85 73 85 86 100 92 97 104 107 101 142 116 109 104 104 93 109 110 112 98 117 89 102 92 92 101 97 117 100 91 93 108 90 83 100 92 100 97 94 93 102 93 51 95 95 85 88 103 91 0 0 0 
0 0 0 94 87 88 95 77 109 86 85 98 102 78 96 83 86 91 88 90 89 98 107 91 88 90 98 87 87 88 81 98 89 99 80 93 82 90 86 87 90 93 92 88 90 90 71 90 81 89 81 76 89 95 96 96 98 111 105 118 114 118 103 121 123 109 97 110 103 83 121 88 89 96 87 96 107 101 90 95 110 93 101 99 91 98 92 98 101 96 92 93 92 90 90 92 107 0 0 0 
0 0 90 87 87 90 98 104 90 102 73 98 87 95 89 93 87 96 87 78 86 88 73 90 84 87 85 84 77 93 91 84 109 91 94 91 88 91 93 86 90 90 95 85 63 70 90 90 91 80 87 85 92 92 88 101 82 108 92 104 104 102 115 61 114 137 116 89 105 81 108 93 87 90 116 98 90 96 105 95 102 104 90 96 93 97 85 99 96 102 70 105 97 87 99 99 59 0 0 0 
0 0 87 87 87 80 94 93 81 103 83 82 94 84 91 84 99 85 100 94 88 95 97 81 94 90 86 69 93 91 89 74 83 89 85 89 93 90 86 85 96 96 89 84 83 91 78 75 82 76 87 105 83 87 90 93 107 93 84 107 116 94 81 98 104 108 115 129 105 110 93 102 111 97 117 102 126 103 105 105 109 107 107 97 90 105 107 115 95 87 111 103 88 100 88 105 59 168 0 0 
0 0 84 87 87 72 112 88 86 102 117 98 104 90 92 94 99 86 102 89 82 87 101 82 96 77 95 96 95 94 89 84 102 89 86 98 88 87 87 81 103 94 83 90 84 79 88 86 84 84 76 94 85 74 90 95 88 89 87 90 97 111 97 115 113 112 110 101 116 109 105 106 95 98 97 108 99 99 102 109 118 85 110 119 99 97 85 83 105 81 77 83 93 86 95 83 49 168 0 0 
0 0 87 87 79 88 101 79 102 87 99 84 88 87 85 93 90 85 86 97 90 101 91 86 95 84 87 93 83 88 88 100 96 84 90 85 103 91 100 96 93 79 85 103 75 84 72 77 78 71 97 72 81 78 80 87 112 91 88 95 92 93 94 81 113 98 108 108 114 103 107 109 109 110 85 87 108 103 94 100 104 96 108 113 113 106 99 111 123 94 118 101 128 88 105 97 49 0 0 0 
0 0 87 87 85 99 93 102 109 90 87 87 84 83 88 88 87 98 98 96 90 96 92 89 100 95 97 101 98 91 92 83 94 103 73 88 94 90 83 93 90 96 87 101 104 80 95 86 94 91 84 90 75 77 90 70 87 89 95 91 96 90 96 92 99 101 105 104 109 106 104 118 117 100 95 94 103 101 106 115 108 106 103 101 104 112 101 125 102 121 109 109 111 97 91 94 49 0 0 0 
0 0 86 87 81 96 94 71 88 77 95 76 84 100 88 87 79 82 86 93 92 100 82 97 91 92 88 95 79 77 106 86 98 88 92 90 91 97 79 96 90 99 90 88 79 58 97 80 74 86 54 74 88 77 82 81 87 86 87 92 89 103 83 93 91 92 98 98 104 103 106 87 110 104 115 125 93 108 107 106 101 111 109 115 101 105 104 84 92 103 98 109 99 121 104 90 49 0 0 0 
0 91 90 90 86 83 93 86 82 89 81 96 88 90 79 97 79 86 92 88 96 80 95 91 92 95 77 99 97 82 84 88 78 99 81 97 88 98 92 94 89 91 87 69 71 62 83 89 80 83 75 71 71 89 76 84 84 83 87 80 81 93 104 82 95 93 96 96 116 108 117 90 102 128 143 105 119 105 103 92 84 102 121 125 106 106 118 100 119 100 103 107 130 103 103 90 49 0 0 0 
0 88 84 92 79 92 95 68 82 104 95 68 96 92 75 105 85 97 90 80 80 95 88 86 91 95 89 88 81 89 85 95 94 99 86 88 95 102 98 106 86 88 89 82 95 78 88 92 88 77 87 88 74 87 86 63 82 89 84 91 88 87 88 89 90 82 97 101 98 103 99 104 90 100 107 110 110 110 97 98 80 115 108 105 114 108 114 123 97 109 108 104 127 113 123 90 49 0 0 0 
0 100 75 87 93 93 102 97 83 96 96 104 90 80 77 69 89 99 87 85 91 97 102 69 81 97 90 91 88 98 86 103 105 77 90 90 96 89 89 83 91 89 93 89 92 72 85 89 77 90 77 78 78 77 87 85 87 83 77 94 93 88 92 89 90 91 82 94 91 100 102 106 106 103 106 94 110 106 91 93 104 113 108 106 100 90 117 100 115 120 113 113 129 93 113 90 47 0 0 0 
0 89 87 99 95 93 81 91 77 95 87 85 84 82 107 75 90 97 78 98 87 96 77 100 94 98 98 63 91 96 88 82 71 97 91 80 86 91 87 104 100 87 85 93 98 82 89 92 80 84 79 74 86 73 80 64 89 83 85 79 87 90 90 90 76 88 90 95 79 91 96 81 109 114 107 112 100 95 109 79 94 102 98 103 106 124 113 112 98 118 124 90 94 107 120 90 173 0 0 0 
0 87 82 80 76 98 69 92 99 77 92 114 72 88 84 110 91 96 88 85 86 87 81 83 94 87 117 94 81 95 103 86 95 91 94 91 94 91 73 97 96 80 94 86 90 88 86 100 84 83 92 83 75 80 86 82 83 89 82 82 93 74 87 90 88 83 101 92 117 84 99 64 97 102 100 97 89 101 99 96 96 105 107 114 111 100 103 111 112 119 100 119 100 124 121 90 0 0 0 0 
0 87 82 86 89 107 82 97 92 92 90 79 90 91 95 71 79 86 81 101 114 96 83 86 87 92 92 90 100 91 94 96 102 83 89 92 90 96 94 94 90 93 81 97 89 84 91 82 98 88 69 81 72 75 85 61 95 76 82 79 86 78 86 88 93 92 90 93 77 87 90 86 92 97 85 94 80 103 87 107 97 105 107 83 106 93 97 104 112 94 106 101 99 111 121 129 0 0 0 0 
0 107 78 105 94 91 98 85 93 82 97 92 84 93 90 110 92 79 106 77 83 84 91 107 81 97 85 61 83 75 92 91 83 107 85 91 90 94 86 102 92 95 96 83 86 97 80 84 81 91 68 86 89 77 87 82 85 80 82 77 102 43 90 85 86 93 90 86 101 90 92 96 97 73 94 88 72 102 100 95 94 101 100 101 102 102 108 95 113 101 93 105 88 111 124 129 168 0 0 0 
0 73 93 93 89 92 94 80 83 82 89 90 82 82 104 76 89 99 79 89 97 83 87 93 86 127 91 70 106 92 99 84 91 94 96 91 93 89 92 101 95 103 88 84 90 78 80 99 78 99 85 93 65 79 100 82 76 84 74 81 102 79 76 84 77 81 94 95 93 92 97 85 106 100 97 99 86 88 100 88 81 91 107 98 99 89 95 91 90 85 91 98 100 115 123 97 168 0 0 0 
0 81 91 90 88 91 99 89 76 103 100 79 93 92 71 88 109 77 102 88 91 87 76 77 95 115 107 113 102 91 98 97 84 95 93 101 90 85 93 101 95 92 87 79 82 88 91 90 94 71 88 92 89 99 81 78 63 85 82 83 77 83 90 82 86 84 23 101 92 94 82 86 95 92 87 92 87 95 78 78 90 93 70 98 100 85 104 82 96 103 89 101 105 99 111 97 0 0 0 0 
0 75 90 88 74 89 82 91 102 87 91 89 82 88 93 73 91 96 92 84 89 90 94 98 98 83 87 88 94 96 98 92 80 86 89 89 90 102 85 101 93 97 99 93 82 93 92 79 90 87 87 87 77 81 71 80 87 76 83 83 72 91 79 84 76 79 98 79 76 92 95 73 89 91 92 87 92 93 102 100 90 94 96 101 89 76 113 90 89 88 92 94 89 105 104 147 0 0 0 0 
0 87 86 90 80 78 95 103 73 106 88 74 90 96 96 107 104 92 100 82 82 87 83 81 89 91 96 97 104 98 95 85 88 86 90 90 88 96 99 99 92 92 93 94 88 95 92 85 92 94 87 77 88 88 89 64 79 84 87 79 81 81 79 71 84 88 91 91 79 86 89 91 79 84 86 88 89 76 94 83 97 88 84 89 99 82 86 87 92 93 94 95 96 105 99 120 0 0 0 0 
0 103 96 90 71 118 84 95 107 86 93 94 90 97 78 89 97 100 100 80 79 96 93 90 83 83 83 87 92 96 93 90 101 87 96 90 88 99 89 91 96 91 100 98 99 90 87 91 86 91 101 80 92 79 86 80 76 84 80 82 80 95 72 85 85 78 79 69 95 89 84 89 89 72 84 79 82 97 81 77 88 90 75 90 106 102 104 99 89 75 86 68 100 92 105 123 0 0 0 0 
0 91 87 100 95 83 104 114 96 85 101 101 103 84 107 101 88 79 83 92 97 94 96 105 91 102 109 110 92 86 106 102 102 90 85 84 89 99 96 95 90 100 95 92 90 95 98 85 75 86 91 96 95 86 80 77 87 83 89 78 83 85 75 74 83 80 71 90 79 87 88 82 93 86 89 91 83 78 84 94 92 74 92 90 85 98 88 109 78 68 78 79 71 71 74 86 0 0 0 0 
0 91 88 103 83 106 83 78 79 82 89 81 87 94 116 104 92 81 92 86 92 83 82 85 93 70 102 94 86 86 88 93 115 87 90 82 88 91 81 93 94 98 95 89 92 92 88 91 96 93 93 90 85 90 76 89 77 75 80 90 85 90 83 71 79 88 88 84 83 105 68 88 70 81 91 81 74 86 87 86 94 93 87 79 80 73 81 77 87 64 76 71 77 84 80 79 0 0 0 0 
0 91 93 86 81 93 93 68 86 83 76 83 85 97 89 76 87 99 83 84 85 84 88 93 90 93 95 93 87 104 95 90 87 91 85 81 88 89 80 93 89 90 89 92 75 100 81 79 87 92 84 86 91 82 79 84 78 79 84 78 75 74 83 85 86 86 87 87 88 83 82 86 78 78 82 79 77 92 82 94 88 86 90 85 85 91 105 72 64 72 72 79 85 81 80 87 0 0 0 0 
0 213 91 91 99 86 112 92 115 90 78 80 88 98 105 98 86 92 90 86 91 90 93 94 85 51 93 92 96 91 87 100 97 98 90 92 82 96 93 89 94 91 97 95 96 103 95 95 99 85 89 89 82 87 88 77 81 85 83 80 74 92 82 72 82 81 88 77 53 81 83 77 84 86 79 89 79 85 85 79 78 75 68 82 86 75 92 84 64 82 83 69 86 81 77 20 0 0 0 0 
0 0 91 104 74 82 93 71 86 92 84 94 86 103 70 92 87 86 108 89 70 79 103 82 77 76 90 89 90 92 81 89 83 104 101 75 87 85 73 90 92 86 88 93 98 94 100 89 89 101 95 96 89 90 77 98 74 78 89 81 79 83 82 79 82 79 82 74 85 75 89 67 85 78 70 75 79 70 86 79 81 89 90 76 78 100 76 86 101 80 113 96 82 85 89 168 0 0 0 0 
0 0 91 92 100 86 98 94 123 82 95 82 86 111 84 77 85 105 85 79 106 89 82 94 98 73 88 89 87 94 106 66 82 89 95 97 89 90 94 87 87 90 92 95 89 88 91 81 90 86 101 91 83 81 94 91 81 73 91 68 78 88 84 62 80 79 72 75 75 79 82 84 84 89 98 82 81 75 83 109 86 90 88 85 91 96 74 89 83 94 84 95 89 87 76 168 0 0 0 0 
0 0 91 76 88 98 86 82 90 82 87 93 98 80 88 87 73 92 101 97 89 86 86 88 87 94 84 86 93 90 98 82 93 85 75 84 93 83 89 85 83 83 93 87 94 92 98 94 98 86 86 86 82 94 89 92 81 81 77 87 82 80 88 80 87 79 79 90 89 87 75 86 85 82 76 72 73 95 83 80 80 84 85 0 77 81 91 105 80 92 94 72 68 87 85 0 0 0 0 0 
0 0 91 84 77 97 92 88 94 100 89 74 92 80 93 85 104 105 97 78 89 80 97 79 84 92 86 83 91 100 89 95 97 95 107 100 93 87 82 83 80 88 91 99 93 90 86 83 79 82 95 83 84 92 99 88 72 82 81 77 77 87 87 81 83 81 79 78 94 74 91 78 83 84 90 90 82 82 74 79 74 86 86 75 72 88 60 95 48 61 70 80 77 85 85 0 0 0 0 0 
0 0 91 100 85 83 92 85 107 115 85 103 119 85 89 77 101 93 92 79 86 89 85 83 88 96 82 89 92 100 95 86 85 94 95 100 109 83 95 86 90 86 90 79 93 88 93 100 83 93 90 88 98 84 92 95 85 82 88 82 78 86 83 77 88 89 84 83 75 78 81 75 82 86 83 84 94 77 83 80 67 86 88 84 94 78 86 82 79 91 70 78 76 90 87 0 0 0 0 0 
0 0 71 77 86 97 92 84 73 86 97 84 87 67 91 83 98 79 86 97 84 84 91 102 107 76 97 89 84 88 85 99 97 89 94 83 89 82 93 84 81 79 75 91 84 93 91 91 94 87 79 93 95 90 92 81 85 82 88 86 78 82 72 82 89 80 83 90 76 83 74 87 71 82 84 81 90 77 86 86 75 84 76 87 105 93 87 75 70 88 97 79 81 83 87 0 0 0 0 0 
0 0 100 106 86 97 90 77 87 117 104 77 88 73 69 56 81 84 83 101 85 73 90 74 83 65 84 81 96 85 88 95 87 103 146 103 88 92 84 78 87 88 88 78 81 85 92 89 104 81 86 92 79 85 95 92 78 84 75 85 78 79 81 78 80 87 75 83 76 86 81 79 84 83 76 74 88 103 84 90 67 87 75 86 81 94 90 85 78 74 77 83 84 84 81 0 0 0 0 0 
0 0 85 85 100 86 124 97 94 109 90 83 76 81 91 93 90 74 92 110 104 83 74 94 97 83 85 77 87 89 102 97 104 95 92 83 92 68 104 85 87 92 82 84 85 91 94 95 98 92 91 81 85 86 90 90 75 89 85 61 94 85 80 78 77 69 83 81 89 70 63 80 74 82 74 72 87 57 77 79 92 79 77 84 93 97 82 65 80 85 94 83 84 84 95 0 0 0 0 0 
0 0 0 0 99 85 100 101 68 89 105 104 101 72 103 100 79 86 90 90 95 90 96 86 93 83 83 90 94 88 81 84 99 99 92 95 103 76 92 91 80 88 87 85 88 87 89 80 93 88 68 88 93 86 101 122 89 85 75 83 78 85 81 74 81 82 86 82 70 93 82 81 90 81 84 72 77 73 83 83 81 81 75 77 83 84 96 84 86 72 82 84 84 84 79 0 0 0 0 0 
0 0 0 0 0 0 99 89 74 106 72 87 94 89 79 94 93 80 101 79 88 99 87 92 84 93 88 91 79 92 101 85 94 99 96 145 92 89 95 85 95 90 83 83 85 92 77 92 90 90 88 85 80 83 105 89 81 91 83 74 80 79 93 98 78 87 80 82 85 83 73 77 75 83 83 79 90 99 81 83 86 76 76 80 71 78 89 85 84 75 96 84 84 84 102 0 0 0 0 0 
0 0 0 0 0 0 0 0 99 110 113 55 98 64 82 90 88 86 79 70 80 95 77 94 86 87 83 88 95 88 86 89 80 93 99 117 106 88 93 84 87 89 92 89 81 75 91 97 87 87 87 78 90 98 74 90 91 81 87 78 88 77 85 84 85 77 75 79 86 94 77 87 83 83 82 75 78 87 85 87 83 88 87 88 108 78 88 94 86 88 64 83 84 84 68 0 0 0 0 0 
0 0 0 0 0 0 0 0 0 0 99 95 112 81 96 94 94 92 92 81 106 96 87 102 90 82 106 94 86 75 92 96 86 85 94 99 94 93 93 100 89 95 90 97 82 92 97 97 88 100 84 85 68 98 96 82 90 79 85 83 86 84 84 76 85 97 86 94 78 81 78 82 87 77 85 89 81 73 93 101 78 88 88 102 87 88 86 83 82 91 92 65 84 84 45 0 0 0 0 0 
0 0 0 0 0 0 0 0 0 0 0 0 145 91 64 64 64 0 0 0 0 0 0 0 85 79 98 90 101 89 94 77 86 87 87 94 97 103 87 91 90 95 102 92 87 86 99 89 87 91 87 95 87 88 79 81 89 94 83 87 79 87 76 93 73 115 86 86 72 84 93 97 84 84 65 100 71 94 82 79 79 73 84 96 88 85 76 85 72 83 94 99 76 88 168 0 0 0 0 0 
0 0 0 0 0 0 0 0 0 0 0 0 0 0 0 105 62 62 62 62 62 62 62 62 62 62 62 62 62 65 90 76 100 92 82 107 100 102 88 100 100 86 94 90 98 88 87 98 94 91 94 84 99 89 89 94 94 84 93 100 89 76 78 82 64 86 82 87 86 80 88 82 81 77 74 84 76 71 76 73 86 95 91 76 76 92 80 84 82 68 115 92 64 88 0 0 0 0 0 0 
0 0 0 0 0 0 0 0 0 0 0 0 0 0 0 0 0 0 0 0 0 181 181 124 137 105 105 105 105 105 105 105 105 105 105 10 10 90 90 101 95 95 102 83 92 91 90 96 98 88 95 78 90 94 82 88 77 77 94 94 92 92 81 72 74 92 74 81 83 83 79 78 87 90 83 91 81 86 87 88 83 88 82 95 84 70 85 78 90 69 94 80 77 81 0 0 0 0 0 0 
0 0 0 0 0 0 0 0 0 0 0 0 0 0 0 0 0 0 0 0 0 0 0 0 0 0 0 0 181 181 124 124 124 143 105 105 105 105 105 83 85 96 87 94 80 101 90 73 75 94 85 100 91 86 94 83 74 92 88 83 87 93 73 75 83 67 83 75 72 80 86 80 80 82 89 84 76 78 85 84 76 76 93 82 84 82 84 100 83 92 103 89 88 81 0 0 0 0 0 0 
0 0 0 0 0 0 0 0 0 0 0 0 0 0 0 0 0 0 0 0 0 0 0 0 0 0 0 0 0 0 0 0 0 0 0 181 181 181 124 124 124 124 143 116 92 78 89 93 69 100 90 69 88 93 91 100 95 78 84 77 71 90 92 91 77 44 87 74 88 80 86 79 77 73 78 85 82 86 89 89 82 71 85 78 79 85 83 78 84 86 93 91 95 81 0 0 0 0 0 0 
0 0 0 0 0 0 0 0 0 0 0 0 0 0 0 0 0 0 0 0 0 0 0 0 0 0 0 0 0 0 0 0 0 0 0 0 0 0 0 0 0 0 181 181 181 181 124 124 124 124 111 100 106 112 91 93 80 95 62 97 98 78 92 76 98 46 91 73 80 80 85 85 69 78 81 81 81 95 86 71 77 84 93 68 80 82 84 77 87 87 96 79 87 86 0 0 0 0 0 0 
0 0 0 0 0 0 0 0 0 0 0 0 0 0 0 0 0 0 0 0 0 0 0 0 0 0 0 0 0 0 0 0 0 0 0 0 0 0 0 0 0 0 0 0 0 0 0 0 0 181 181 181 181 181 124 124 30 111 111 88 82 92 83 89 93 60 86 97 78 76 76 76 89 75 86 81 79 85 85 76 77 72 87 94 86 78 88 85 72 90 73 87 79 86 0 0 0 0 0 0 
0 0 0 0 0 0 0 0 0 0 0 0 0 0 0 0 0 0 0 0 0 0 0 0 0 0 0 0 0 0 0 0 0 0 0 0 0 0 0 0 0 0 0 0 0 0 0 0 0 0 0 0 0 0 0 181 181 181 181 181 181 181 124 99 0 24 83 82 81 80 64 73 75 91 68 75 89 83 76 84 75 81 79 85 99 85 88 95 84 80 75 81 80 113 0 0 0 0 0 0 
0 0 0 0 0 0 0 0 0 0 0 0 0 0 0 0 0 0 0 0 0 0 0 0 0 0 0 0 0 0 0 0 0 0 0 0 0 0 0 0 0 0 0 0 0 0 0 0 0 0 0 0 0 0 0 0 0 0 0 0 0 0 181 181 181 181 181 181 38 38 54 79 92 87 92 79 77 79 94 90 82 84 79 80 82 67 93 88 89 81 70 80 93 89 0 0 0 0 0 0 
0 0 0 0 0 0 0 0 0 0 0 0 0 0 0 0 0 0 0 0 0 0 0 0 0 0 0 0 0 0 0 0 0 0 0 0 0 0 0 0 0 0 0 0 0 0 0 0 0 0 0 0 0 0 0 0 0 0 0 0 0 0 0 0 0 0 0 0 0 181 181 181 181 181 38 90 82 73 73 89 79 71 90 78 87 79 81 108 77 78 81 75 97 78 0 0 0 0 0 0 
0 0 0 0 0 0 0 0 0 0 0 0 0 0 0 0 0 0 0 0 0 0 0 0 0 0 0 0 0 0 0 0 0 0 0 0 0 0 0 0 0 0 0 0 0 0 0 0 0 0 0 0 0 0 0 0 0 0 0 0 0 0 0 0 0 0 0 0 0 0 0 0 0 0 0 0 181 181 181 38 90 88 52 76 82 91 86 76 70 75 85 82 84 0 0 0 0 0 0 0 
0 0 0 0 0 0 0 0 0 0 0 0 0 0 0 0 0 0 0 0 0 0 0 0 0 0 0 0 0 0 0 0 0 0 0 0 0 0 0 0 0 0 0 0 0 0 0 0 0 0 0 0 0 0 0 0 0 0 0 0 0 0 0 0 0 0 0 0 0 0 0 0 0 0 0 0 0 0 0 0 0 0 0 181 38 90 69 78 75 87 82 0 0 0 0 0 0 0 0 0 
