P2
40 40
255
0 0 0 0 0 0 0 0 0 0 0 0 0 0 0 0 0 0 0 0 0 0 0 0 0 0 0 0 0 0 0 0 0 0 0 0 0 0 0 0 
0 0 0 0 0 0 0 0 0 0 0 0 0 0 0 0 0 0 0 0 0 0 0 0 0 0 0 0 55 86 93 83 0 0 0 0 0 0 0 0 
0 0 0 0 0 0 0 0 0 0 0 0 0 0 0 0 0 0 0 0 0 0 0 0 0 0 55 82 84 0 103 125 69 0 0 0 0 0 0 0 
0 0 0 0 0 0 0 0 0 0 0 0 0 0 0 0 0 0 0 0 0 0 0 0 0 82 84 84 86 89 38 119 189 70 112 0 0 0 0 0 
0 0 0 0 0 0 0 0 0 0 0 0 0 0 0 0 0 0 0 0 0 0 0 82 84 84 78 90 88 88 94 3 88 91 107 123 204 0 0 0 
0 0 0 0 0 0 0 0 0 0 0 0 0 0 0 0 0 0 0 0 0 55 82 84 78 86 85 88 88 88 94 93 0 0 15 59 70 127 235 0 
0 0 0 0 0 0 0 0 0 0 0 0 0 0 0 0 0 0 0 77 82 84 78 84 85 88 88 88 88 88 94 97 100 4 109 8 0 54 178 0 
0 0 0 0 0 0 0 0 0 0 0 0 0 0 0 0 0 0 82 84 78 78 88 85 88 88 88 88 88 88 84 92 100 89 128 95 96 136 59 129 
0 0 0 0 0 0 0 0 0 0 0 0 0 0 0 0 55 84 78 78 86 85 85 88 88 88 88 88 88 88 92 89 100 87 4 89 87 72 28 116 
0 0 0 0 0 0 0 0 0 0 0 0 0 0 77 89 78 78 78 85 85 88 88 88 88 88 88 88 88 88 88 96 100 89 89 90 88 87 20 151 
0 0 0 0 0 0 0 0 0 0 0 0 77 82 84 78 78 86 85 85 88 88 88 88 88 88 88 88 88 88 88 93 95 100 89 4 95 85 108 113 
0 0 0 0 0 0 0 0 0 0 0 82 84 78 78 78 85 85 85 88 88 88 88 88 88 88 88 88 88 88 88 99 92 100 89 89 71 57 130 0 
0 0 0 0 0 0 0 0 0 77 84 78 78 78 85 85 85 88 88 88 88 88 88 88 88 88 88 88 88 88 88 94 116 100 89 89 71 57 97 122 
0 0 0 0 0 0 0 77 84 78 78 78 84 85 85 85 88 88 88 88 88 88 88 88 88 88 88 88 88 88 88 78 88 100 99 89 93 69 118 119 
0 0 0 0 0 77 82 78 78 78 78 85 85 85 85 88 88 88 88 88 88 88 88 88 88 88 88 88 88 88 88 88 118 100 100 72 89 70 107 119 
0 0 0 0 77 78 78 78 78 85 85 85 85 88 88 88 88 88 88 88 88 88 88 88 88 88 88 88 88 88 88 88 122 100 100 91 93 99 103 119 
0 0 141 182 78 78 78 78 85 85 85 85 88 88 88 88 88 88 88 88 88 88 88 88 88 88 88 88 88 88 88 88 122 101 80 55 106 121 76 144 
0 73 96 122 78 78 85 85 85 85 85 88 88 88 88 88 88 88 88 88 88 88 88 88 88 88 88 88 88 88 88 88 109 121 125 86 100 148 76 69 
0 62 73 119 185 85 85 85 85 87 88 88 88 88 88 88 88 88 88 88 88 88 88 88 88 85 82 82 82 82 82 84 58 53 84 133 100 118 76 69 
0 30 69 80 147 16 85 85 88 88 88 88 88 88 88 88 88 85 84 82 82 82 82 82 82 82 82 82 82 82 82 86 78 0 61 104 61 83 76 69 
0 4 36 81 205 141 85 88 88 88 85 84 82 82 82 82 82 82 82 82 82 82 82 82 82 82 82 82 82 82 86 86 94 51 97 189 76 83 76 69 
0 35 0 44 143 163 159 82 82 82 82 82 82 82 82 82 82 82 82 82 82 82 82 82 82 82 82 82 82 87 86 87 56 0 110 118 89 83 76 69 
0 72 38 40 147 162 181 85 85 85 82 82 82 82 82 82 82 82 82 82 82 82 82 82 82 82 82 82 83 86 87 81 3 0 113 138 86 83 76 0 
0 16 0 34 96 107 150 141 102 77 85 85 82 82 82 82 82 82 82 82 82 82 82 82 82 82 82 82 86 87 85 85 0 15 97 163 86 83 76 0 
0 0 0 0 84 155 138 156 43 93 93 102 95 85 85 82 82 82 82 82 82 82 82 82 82 82 82 86 87 86 85 84 84 0 28 224 86 83 76 0 
0 0 11 0 47 112 158 148 137 47 93 93 93 93 102 81 85 85 82 82 82 82 82 82 82 82 83 87 86 85 85 89 85 13 4 159 50 83 76 0 
0 0 0 0 4 96 93 142 148 89 60 93 93 93 93 93 93 102 81 81 82 82 82 82 82 81 87 86 83 85 87 84 87 48 48 214 100 83 76 0 
0 0 0 61 2 87 129 117 158 119 70 90 93 93 93 93 93 93 93 93 102 81 81 82 82 87 86 86 85 87 86 86 75 187 36 41 90 83 76 0 
0 0 0 0 0 38 33 131 155 224 75 66 72 93 93 93 93 93 93 93 93 50 79 113 105 127 127 142 158 131 139 117 157 119 52 118 121 83 76 0 
0 0 0 0 0 31 90 77 126 145 183 111 100 102 149 89 101 86 86 86 86 98 89 113 96 107 110 103 110 86 89 83 127 93 122 192 200 102 76 0 
0 0 0 0 0 0 63 183 112 136 144 139 81 82 134 125 122 119 120 114 111 110 103 101 99 102 138 79 106 30 70 101 92 64 61 54 100 71 144 0 
0 0 0 0 0 0 0 48 91 119 95 141 151 119 106 115 118 138 112 153 72 114 111 81 97 71 81 75 98 0 43 74 96 80 70 105 90 200 106 0 
0 0 0 0 0 0 0 0 81 72 108 100 93 94 97 120 107 111 114 141 116 120 21 49 95 97 0 0 46 21 48 86 50 49 91 84 78 124 161 0 
0 0 0 0 0 0 0 0 63 78 139 84 135 72 63 114 81 129 110 112 83 157 90 79 21 0 56 27 26 0 0 41 14 43 62 81 99 90 132 0 
0 0 0 0 0 0 0 0 0 0 113 135 171 168 51 73 112 74 55 47 24 6 7 17 71 81 81 71 87 84 85 11 105 100 78 96 80 149 0 0 
0 0 0 0 0 0 0 0 0 0 0 0 0 0 0 19 0 30 0 5 14 89 95 95 109 95 81 81 71 65 92 50 53 56 102 84 37 0 0 0 
0 0 0 0 0 0 0 0 0 0 0 0 53 102 79 96 109 109 100 82 111 84 96 89 122 95 195 136 81 87 77 0 9 129 70 40 88 0 0 0 
0 0 0 0 0 0 0 0 0 0 0 0 0 0 0 0 0 37 79 93 109 109 82 111 94 71 89 95 74 223 82 0 123 34 67 0 0 0 0 0 
0 0 0 0 0 0 0 0 0 0 0 0 0 0 0 0 0 0 0 0 0 0 102 79 109 82 84 0 71 122 50 95 101 101 0 0 0 0 0 0 
0 0 0 0 0 0 0 0 0 0 0 0 0 0 0 0 0 0 0 0 0 0 0 0 0 0 0 79 100 0 0 67 58 0 0 0 0 0 0 0 
