P2
40 40
255
0 0 0 0 0 0 0 0 0 0 0 0 0 0 0 0 0 0 0 0 0 0 0 0 0 0 0 0 0 0 0 0 0 0 0 0 0 0 0 0 
0 0 0 0 0 0 0 0 0 0 0 0 0 0 0 0 0 0 0 0 0 0 0 0 0 0 0 0 103 84 80 91 0 0 0 0 0 0 0 0 
0 0 0 0 0 0 0 0 0 0 0 0 0 0 0 0 0 0 0 0 0 0 0 0 0 0 103 90 89 165 70 17 104 0 0 0 0 0 0 0 
0 0 0 0 0 0 0 0 0 0 0 0 0 0 0 0 0 0 0 0 0 0 0 0 0 90 89 89 87 84 132 52 0 103 60 0 0 0 0 0 
0 0 0 0 0 0 0 0 0 0 0 0 0 0 0 0 0 0 0 0 0 0 0 90 89 89 94 84 86 86 79 161 82 78 64 46 0 0 0 0 
0 0 0 0 0 0 0 0 0 0 0 0 0 0 0 0 0 0 0 0 0 103 90 89 94 87 89 86 86 86 79 81 164 156 148 113 102 44 0 0 
0 0 0 0 0 0 0 0 0 0 0 0 0 0 0 0 0 0 0 94 90 89 94 89 89 86 86 86 86 86 79 76 73 159 63 155 187 117 0 0 
0 0 0 0 0 0 0 0 0 0 0 0 0 0 0 0 0 0 90 89 94 94 85 89 86 86 86 86 86 86 89 82 73 85 42 79 77 30 113 38 
0 0 0 0 0 0 0 0 0 0 0 0 0 0 0 0 103 89 94 94 87 89 89 86 86 86 86 86 86 86 81 84 73 86 159 85 86 101 139 56 
0 0 0 0 0 0 0 0 0 0 0 0 0 0 94 84 94 94 94 89 89 86 86 86 86 86 86 86 86 86 86 77 73 84 85 83 86 86 138 14 
0 0 0 0 0 0 0 0 0 0 0 0 94 90 89 94 94 87 89 89 86 86 86 86 86 86 86 86 86 86 86 81 78 73 85 159 79 70 64 32 
0 0 0 0 0 0 0 0 0 0 0 90 89 94 94 94 89 89 89 86 86 86 86 86 86 86 86 86 86 86 86 74 81 73 85 85 102 97 27 225 
0 0 0 0 0 0 0 0 0 94 89 94 94 94 89 89 89 86 86 86 86 86 86 86 86 86 86 86 86 86 86 79 55 73 85 85 102 115 70 40 
0 0 0 0 0 0 0 94 89 94 94 94 89 89 89 89 86 86 86 86 86 86 86 86 86 86 86 86 86 86 86 95 85 73 74 85 80 101 49 51 
0 0 0 0 0 94 90 94 94 94 94 89 89 89 89 86 86 86 86 86 86 86 86 86 86 86 86 86 86 86 86 86 54 73 73 97 48 99 66 51 
0 0 0 0 94 94 94 94 94 89 89 89 89 85 86 86 86 86 86 86 86 86 86 86 86 86 86 86 86 86 86 86 48 73 73 62 76 61 49 51 
0 0 0 0 94 94 94 94 89 89 89 89 86 86 86 86 86 86 86 86 86 86 86 86 86 86 86 86 86 86 86 86 49 72 84 113 65 35 97 16 
0 100 77 49 94 94 89 89 89 89 89 86 86 86 86 86 86 86 86 86 86 86 86 86 86 86 86 86 86 86 86 86 61 43 28 87 65 5 97 103 
0 109 100 50 0 89 89 89 89 86 86 86 86 86 86 86 86 86 86 86 86 86 86 86 86 89 91 91 91 91 91 87 110 118 89 34 70 45 97 103 
0 138 104 94 3 151 89 89 86 86 86 86 86 86 86 86 86 89 90 91 91 91 91 91 91 91 91 91 91 91 91 86 95 99 110 63 110 90 97 103 
0 157 132 92 0 26 89 86 86 86 89 90 91 91 91 91 91 91 91 91 91 91 91 91 91 91 91 91 91 91 86 86 80 110 76 0 97 90 97 103 
0 135 182 125 25 0 4 91 91 91 91 91 91 91 91 91 91 91 91 91 91 91 91 91 91 91 91 91 91 84 86 86 113 155 62 44 85 90 97 103 
0 98 124 129 20 0 0 89 89 89 91 91 91 91 91 91 91 91 91 91 91 91 91 91 91 91 91 91 90 86 86 91 158 169 59 22 87 90 97 0 
0 140 176 135 76 65 16 28 71 96 89 89 91 91 91 91 91 91 91 91 91 91 91 91 91 91 91 91 86 86 88 88 164 151 76 0 87 90 97 0 
0 0 167 154 89 10 28 8 128 81 81 71 78 89 89 91 91 91 91 91 91 91 91 91 91 91 91 86 86 87 88 87 89 177 139 0 87 90 97 0 
0 0 154 184 124 60 7 16 31 124 81 81 81 81 71 92 89 89 91 91 91 91 91 91 91 91 90 86 87 88 88 84 89 150 157 0 118 90 97 0 
0 0 0 171 156 77 79 26 19 85 112 81 81 81 81 81 81 71 92 92 91 91 91 91 91 92 86 87 90 88 86 89 86 119 116 0 70 90 97 0 
0 0 0 111 161 78 39 55 6 52 103 84 81 81 81 81 81 81 81 81 71 92 92 91 91 86 87 87 88 86 87 87 95 0 123 54 83 90 97 0 
0 0 0 0 207 123 134 39 10 0 99 106 101 81 81 81 81 81 81 81 81 119 94 57 65 39 39 19 0 23 26 41 0 46 120 13 51 90 97 0 
0 0 0 0 0 136 83 95 45 23 0 62 72 71 17 85 72 87 87 87 88 74 73 52 74 65 55 63 60 87 84 90 29 80 49 0 0 71 97 0 
0 0 0 0 0 197 110 0 61 33 24 29 91 88 36 46 49 52 50 56 58 54 62 65 74 66 27 94 66 139 101 64 81 109 111 118 71 101 16 0 
0 0 0 0 0 0 190 123 82 53 79 26 13 53 65 57 54 29 50 5 93 52 59 72 76 101 85 97 75 159 124 98 77 93 102 68 83 0 59 0 
0 0 0 0 0 0 202 203 92 100 64 67 81 80 75 32 62 61 33 19 52 49 146 122 78 71 159 154 122 142 123 88 122 122 82 90 95 43 0 0 
0 0 0 0 0 0 0 211 109 95 29 89 33 100 108 58 92 23 61 58 90 7 83 92 124 158 101 136 136 147 160 128 151 127 111 91 74 59 26 0 
0 0 0 0 0 0 0 0 227 198 59 32 0 0 121 99 61 98 117 123 135 143 131 125 102 92 92 102 86 90 88 155 64 72 92 77 91 0 0 0 
0 0 0 0 0 0 0 0 0 213 209 193 184 153 170 119 166 124 139 148 136 84 78 78 63 78 92 92 102 107 81 117 115 113 69 89 104 0 0 0 
0 0 0 0 0 0 0 0 0 0 0 0 119 70 94 77 63 63 73 91 61 89 77 84 48 78 0 33 92 86 91 189 128 36 102 104 62 0 0 0 
0 0 0 0 0 0 0 0 0 0 0 0 0 0 0 0 0 132 94 80 63 63 91 61 79 102 84 78 99 0 90 246 47 129 85 0 0 0 0 0 
0 0 0 0 0 0 0 0 0 0 0 0 0 0 0 0 0 0 0 0 0 0 70 94 63 91 89 193 102 48 65 77 72 39 0 0 0 0 0 0 
0 0 0 0 0 0 0 0 0 0 0 0 0 0 0 0 0 0 0 0 0 0 0 0 0 0 0 94 73 206 193 84 55 0 0 0 0 0 0 0 
