P3
50 50
255
50 50 50 50 50 50 50 50 50 50 50 50 50 50 50 50 50 50 50 50 50 50 50 50 50 50 50 50 50 50 50 50 50 50 50 50 50 50 50 50 50 50 50 50 50 50 50 50 50 50 50 50 50 50 50 50 50 50 50 50 50 50 50 50 50 50 50 50 50 50 50 50 50 50 50 50 50 50 50 50 50 50 50 50 50 50 50 50 50 50 50 50 50 50 50 50 50 50 50 50 50 50 50 50 50 50 50 50 50 50 50 50 50 50 50 50 50 50 50 50 50 50 50 50 50 50 50 50 50 50 50 50 50 50 50 50 50 50 50 50 50 50 50 50 50 50 50 50 50 50 
50 50 50 50 50 50 50 50 50 50 50 50 50 50 50 50 50 50 50 50 50 50 50 50 50 50 50 50 50 50 50 50 50 50 50 50 50 50 50 50 50 50 50 50 50 50 50 50 50 50 50 50 50 50 50 50 50 50 50 50 50 50 50 50 50 50 50 50 50 50 50 50 50 50 50 50 50 50 50 50 50 50 50 50 50 50 50 50 50 50 50 50 50 50 50 50 50 50 50 50 50 50 50 50 50 189 191 63 191 182 63 191 172 63 191 163 63 50 50 50 50 50 50 50 50 50 50 50 50 50 50 50 50 50 50 50 50 50 50 50 50 50 50 50 50 50 50 50 50 50 
50 50 50 50 50 50 50 50 50 50 50 50 50 50 50 50 50 50 50 50 50 50 50 50 50 50 50 50 50 50 50 50 50 50 50 50 50 50 50 50 50 50 50 50 50 50 50 50 50 50 50 50 50 50 50 50 50 50 50 50 50 50 50 50 50 50 50 50 50 50 50 50 50 50 50 50 50 50 50 50 50 50 50 50 50 50 50 50 50 50 50 50 50 50 50 50 50 50 50 50 50 50 176 191 63 189 191 63 191 180 63 191 170 63 191 167 63 50 50 50 50 50 50 50 50 50 50 50 50 50 50 50 50 50 50 50 50 50 50 50 50 50 50 50 50 50 50 50 50 50 
50 50 50 50 50 50 50 50 50 50 50 50 50 50 50 50 50 50 50 50 50 50 50 50 50 50 50 50 50 50 50 50 50 50 50 50 50 50 50 50 50 50 50 50 50 50 50 50 50 50 50 50 50 50 50 50 50 50 50 50 50 50 50 50 50 50 50 50 50 50 50 50 50 50 50 50 50 50 50 50 50 50 50 50 50 50 50 50 50 50 50 50 50 50 50 50 50 50 50 163 191 63 180 191 63 191 187 63 191 174 63 191 170 63 191 165 63 191 157 63 50 50 50 50 50 50 50 50 50 50 50 50 50 50 50 50 50 50 50 50 50 50 50 50 50 50 50 50 50 50 
50 50 50 50 50 50 50 50 50 50 50 50 50 50 50 50 50 50 50 50 50 50 50 50 50 50 50 50 50 50 50 50 50 50 50 50 50 50 50 50 50 50 50 50 50 50 50 50 50 50 50 50 50 50 50 50 50 50 50 50 50 50 50 50 50 50 50 50 50 50 50 50 50 50 50 50 50 50 50 50 50 50 50 50 50 50 50 50 50 50 50 50 50 116 191 63 159 191 63 174 191 63 184 191 63 191 184 63 191 176 63 191 167 63 191 165 63 191 155 63 50 50 50 50 50 50 50 50 50 50 50 50 50 50 50 50 50 50 50 50 50 50 50 50 50 50 50 50 50 50 
50 50 50 50 50 50 50 50 50 50 50 50 50 50 50 50 50 50 50 50 50 50 50 50 50 50 50 50 50 50 50 50 50 50 50 50 50 50 50 50 50 50 50 50 50 50 50 50 50 50 50 50 50 50 50 50 50 50 50 50 50 50 50 50 50 50 50 50 50 50 50 50 50 50 50 50 50 50 50 50 50 50 50 50 50 50 50 50 50 50 116 191 63 144 191 63 161 191 63 176 191 63 180 191 63 191 180 63 191 174 63 191 165 63 191 167 63 191 153 63 191 148 63 50 50 50 50 50 50 50 50 50 50 50 50 50 50 50 50 50 50 50 50 50 50 50 50 50 50 50 
50 50 50 50 50 50 50 50 50 50 50 50 50 50 50 50 50 50 50 50 50 50 50 50 50 50 50 50 50 50 50 50 50 50 50 50 50 50 50 50 50 50 50 50 50 50 50 50 50 50 50 50 50 50 50 50 50 50 50 50 50 50 50 50 50 50 50 50 50 50 50 50 50 50 50 50 50 50 50 50 50 50 50 50 50 50 50 106 191 63 123 191 63 146 191 63 159 191 63 176 191 63 191 191 63 191 184 63 191 178 63 191 172 63 191 167 63 191 150 63 191 142 63 191 172 63 50 50 50 50 50 50 50 50 50 50 50 50 50 50 50 50 50 50 50 50 50 50 50 50 
50 50 50 50 50 50 50 50 50 50 50 50 50 50 50 50 50 50 50 50 50 50 50 50 50 50 50 50 50 50 50 50 50 50 50 50 50 50 50 50 50 50 50 50 50 50 50 50 50 50 50 50 50 50 50 50 50 50 50 50 50 50 50 50 50 50 50 50 50 50 50 50 50 50 50 50 50 50 50 50 50 140 191 63 93 191 63 110 191 63 131 191 63 144 191 63 161 191 63 176 191 63 187 191 63 191 182 63 191 178 63 191 170 63 191 157 63 191 144 63 191 127 63 191 110 63 50 50 50 50 50 50 50 50 50 50 50 50 50 50 50 50 50 50 50 50 50 50 50 50 
50 50 50 50 50 50 50 50 50 50 50 50 50 50 50 50 50 50 50 50 50 50 50 50 50 50 50 50 50 50 50 50 50 50 50 50 50 50 50 50 50 50 50 50 50 50 50 50 50 50 50 50 50 50 50 50 50 50 50 50 50 50 50 50 50 50 50 50 50 50 50 50 50 50 50 50 50 50 63 191 91 78 191 63 97 191 63 112 191 63 129 191 63 144 191 63 161 191 63 172 191 63 189 191 63 191 178 63 191 174 63 191 163 63 191 159 63 191 142 63 191 131 63 191 163 63 155 191 63 50 50 50 50 50 50 50 50 50 50 50 50 50 50 50 50 50 50 50 50 50 
50 50 50 50 50 50 50 50 50 50 50 50 50 50 50 50 50 50 50 50 50 50 50 50 50 50 50 50 50 50 50 50 50 50 50 50 50 50 50 50 50 50 50 50 50 50 50 50 50 50 50 50 50 50 50 50 50 50 50 50 50 50 50 50 50 50 50 50 50 50 50 50 50 50 50 63 191 80 63 191 63 82 191 63 99 191 63 119 191 63 131 191 63 146 191 63 159 191 63 174 191 63 191 191 63 191 182 63 191 170 63 191 170 63 191 165 63 191 165 63 191 178 63 159 191 63 63 191 78 50 50 50 50 50 50 50 50 50 50 50 50 50 50 50 50 50 50 50 50 50 
50 50 50 50 50 50 50 50 50 50 50 50 50 50 50 50 50 50 50 50 50 50 50 50 50 50 50 50 50 50 50 50 50 50 50 50 50 50 50 50 50 50 50 50 50 50 50 50 50 50 50 50 50 50 50 50 50 50 50 50 50 50 50 50 50 50 50 50 50 172 191 63 63 191 82 63 191 78 68 191 63 82 191 63 99 191 63 116 191 63 131 191 63 148 191 63 161 191 63 176 191 63 191 191 63 191 184 63 191 178 63 191 180 63 189 191 63 167 191 63 129 191 63 74 191 63 63 191 142 63 191 169 50 50 50 50 50 50 50 50 50 50 50 50 50 50 50 50 50 50 
50 50 50 50 50 50 50 50 50 50 50 50 50 50 50 50 50 50 50 50 50 50 50 50 50 50 50 50 50 50 50 50 50 50 50 50 50 50 50 50 50 50 50 50 50 50 50 50 50 50 50 50 50 50 50 50 50 50 50 50 50 50 50 50 50 50 65 191 63 63 191 78 63 191 82 63 191 74 70 191 63 82 191 63 99 191 63 116 191 63 136 191 63 150 191 63 161 191 63 176 191 63 189 191 63 191 191 63 189 191 63 170 191 63 144 191 63 102 191 63 63 191 91 63 191 169 63 155 191 63 97 191 63 191 163 50 50 50 50 50 50 50 50 50 50 50 50 50 50 50 
50 50 50 50 50 50 50 50 50 50 50 50 50 50 50 50 50 50 50 50 50 50 50 50 50 50 50 50 50 50 50 50 50 50 50 50 50 50 50 50 50 50 50 50 50 50 50 50 50 50 50 50 50 50 50 50 50 50 50 50 50 50 50 63 191 70 63 191 72 63 191 78 63 191 84 63 191 70 72 191 63 87 191 63 102 191 63 121 191 63 138 191 63 155 191 63 165 191 63 176 191 63 178 191 63 172 191 63 157 191 63 123 191 63 80 191 63 63 191 112 63 191 184 63 133 191 63 80 191 76 63 191 101 63 191 50 50 50 50 50 50 50 50 50 50 50 50 50 50 50 
50 50 50 50 50 50 50 50 50 50 50 50 50 50 50 50 50 50 50 50 50 50 50 50 50 50 50 50 50 50 50 50 50 50 50 50 50 50 50 50 50 50 50 50 50 50 50 50 50 50 50 50 50 50 50 50 50 191 178 63 63 191 65 63 191 72 63 191 80 63 191 82 63 191 82 63 191 65 76 191 63 93 191 63 104 191 63 127 191 63 144 191 63 157 191 63 165 191 63 167 191 63 159 191 63 136 191 63 104 191 63 63 191 70 63 191 138 63 174 191 63 121 191 63 76 191 87 63 191 108 63 191 127 63 191 138 63 191 50 50 50 50 50 50 50 50 50 50 50 50 
50 50 50 50 50 50 50 50 50 50 50 50 50 50 50 50 50 50 50 50 50 50 50 50 50 50 50 50 50 50 50 50 50 50 50 50 50 50 50 50 50 50 50 50 50 50 50 50 50 50 50 50 50 50 110 191 63 72 191 63 63 191 67 63 191 78 63 191 87 63 191 89 63 191 87 63 191 70 80 191 63 95 191 63 110 191 63 131 191 63 148 191 63 155 191 63 153 191 63 142 191 63 127 191 63 87 191 63 63 191 82 63 191 142 63 167 191 63 110 191 63 70 191 89 63 191 114 63 191 125 63 191 142 63 191 148 63 191 50 50 50 50 50 50 50 50 50 50 50 50 
50 50 50 50 50 50 50 50 50 50 50 50 50 50 50 50 50 50 50 50 50 50 50 50 50 50 50 50 50 50 50 50 50 50 50 50 50 50 50 50 50 50 50 50 50 50 50 50 50 50 50 97 191 63 82 191 63 68 191 63 63 191 76 63 191 84 63 191 91 63 191 97 63 191 87 63 191 63 82 191 63 97 191 63 116 191 63 138 191 63 144 191 63 144 191 63 131 191 63 116 191 63 70 191 63 63 191 110 63 191 165 63 161 191 63 110 191 63 70 191 89 63 191 114 63 191 129 63 191 142 63 191 150 63 191 159 63 191 170 63 191 50 50 50 50 50 50 50 50 50 
50 50 50 50 50 50 50 50 50 50 50 50 50 50 50 50 50 50 50 50 50 50 50 50 50 50 50 50 50 50 50 50 50 50 50 50 50 50 50 50 50 50 50 50 50 191 146 63 104 191 63 93 191 63 80 191 63 63 191 63 63 191 78 63 191 89 63 191 93 63 191 97 63 191 84 70 191 63 85 191 63 104 191 63 121 191 63 131 191 63 131 191 63 123 191 63 108 191 63 65 191 63 63 191 127 63 191 184 63 146 191 63 106 191 63 65 191 85 63 191 104 63 191 129 63 191 140 63 191 155 63 191 161 63 191 170 63 191 178 63 191 176 63 191 50 50 50 50 50 50 
50 50 50 50 50 50 50 50 50 50 50 50 50 50 50 50 50 50 50 50 50 50 50 50 50 50 50 50 50 50 50 50 50 50 50 50 50 50 50 50 50 50 155 191 63 125 191 63 102 191 63 93 191 63 78 191 63 70 191 63 63 191 70 63 191 82 63 191 87 63 191 89 63 191 78 74 191 63 89 191 63 110 191 63 123 191 63 127 191 63 116 191 63 99 191 63 63 191 74 63 191 142 63 187 191 63 144 191 63 97 191 63 63 191 89 63 191 108 63 191 129 63 191 142 63 191 116 63 191 161 63 191 172 63 191 176 63 191 182 63 191 191 63 184 50 50 50 50 50 50 
50 50 50 50 50 50 50 50 50 50 50 50 50 50 50 50 50 50 50 50 50 50 50 50 50 50 50 50 50 50 50 50 50 50 50 50 50 50 50 146 191 63 148 191 63 116 191 63 104 191 63 99 191 63 97 191 63 87 191 63 68 191 63 63 191 72 63 191 80 63 191 80 63 191 67 80 191 63 93 191 63 112 191 63 121 191 63 114 191 63 102 191 63 63 191 72 63 191 144 63 174 191 63 136 191 63 95 191 63 65 191 89 63 191 104 63 191 121 63 191 138 63 191 150 63 191 155 63 191 165 63 191 174 63 191 184 63 191 191 63 167 191 63 133 191 63 150 50 50 50 
50 50 50 50 50 50 50 50 50 50 50 50 50 50 50 50 50 50 50 50 50 50 50 50 50 50 50 50 50 50 50 50 50 191 114 63 163 191 63 182 191 63 150 191 63 123 191 63 116 191 63 119 191 63 119 191 63 102 191 63 76 191 63 63 191 65 63 191 76 63 191 76 65 191 63 80 191 63 99 191 63 114 191 63 116 191 63 104 191 63 70 191 63 63 191 133 63 174 191 63 125 191 63 91 191 65 63 191 87 63 191 106 63 191 125 63 191 138 63 191 148 63 191 155 63 191 163 63 191 170 63 191 172 63 191 191 63 191 191 63 155 191 63 157 191 63 191 50 50 50 
50 50 50 50 50 50 50 50 50 50 50 50 50 50 50 50 50 50 50 50 50 50 50 50 50 50 50 50 50 50 191 180 63 191 165 63 191 180 63 191 189 63 155 191 63 136 191 63 131 191 63 140 191 63 125 191 63 104 191 63 76 191 63 63 191 63 63 191 70 63 191 70 70 191 63 85 191 63 102 191 63 110 191 63 102 191 63 89 191 63 63 191 108 63 189 191 63 131 191 63 95 191 65 63 191 85 63 191 104 63 191 119 63 191 131 63 191 144 63 191 150 63 191 157 63 191 159 63 191 165 63 191 172 63 191 184 63 191 184 63 191 191 63 182 191 63 189 178 63 191 
50 50 50 50 50 50 50 50 50 50 50 50 50 50 50 50 50 50 50 50 50 50 50 50 50 50 50 191 167 63 191 159 63 191 165 63 191 170 63 191 191 63 163 191 63 138 191 63 146 191 63 144 191 63 127 191 63 99 191 63 74 191 63 63 191 65 63 191 70 63 191 63 74 191 63 93 191 63 108 191 63 106 191 63 97 191 63 63 191 82 63 191 161 63 146 191 63 99 191 63 63 191 85 63 191 104 63 191 116 63 191 131 63 191 140 63 191 148 63 191 148 63 191 153 63 191 153 63 191 157 63 191 167 63 191 172 63 191 191 63 184 187 63 191 167 63 191 165 63 191 
50 50 50 50 50 50 50 50 50 50 50 50 50 50 50 50 50 50 50 50 50 50 50 50 182 191 63 191 148 63 191 157 63 191 161 63 191 174 63 191 191 63 178 191 63 146 191 63 150 191 63 140 191 63 119 191 63 89 191 63 70 191 63 63 191 65 63 191 67 65 191 63 82 191 63 102 191 63 106 191 63 97 191 63 63 191 74 63 191 138 63 170 191 63 114 191 63 72 191 82 63 191 101 63 191 112 63 191 121 63 191 131 63 191 140 63 191 146 63 191 146 63 191 142 63 191 133 63 191 146 63 191 155 63 191 165 63 191 157 63 191 153 63 191 165 63 191 153 63 191 
50 50 50 50 50 50 50 50 50 50 50 50 50 50 50 50 50 50 191 116 63 191 131 63 191 138 63 191 146 63 191 153 63 191 159 63 191 174 63 189 191 63 165 191 63 148 191 63 142 191 63 127 191 63 110 191 63 78 191 63 63 191 63 63 191 70 63 191 67 72 191 63 91 191 63 106 191 63 106 191 63 72 191 63 63 191 112 63 191 191 63 133 191 63 89 191 74 63 191 97 63 191 108 63 191 116 63 191 125 63 191 129 63 191 131 63 191 133 63 191 133 63 191 121 63 191 119 63 191 133 63 191 140 63 191 136 63 191 142 63 191 153 63 191 146 63 191 159 63 191 
50 50 50 50 50 50 50 50 50 50 50 50 50 50 50 191 140 63 191 125 63 191 127 63 191 135 63 191 144 63 191 150 63 191 159 63 191 176 63 182 191 63 165 191 63 146 191 63 131 191 63 116 191 63 99 191 63 78 191 63 65 191 63 63 191 67 65 191 63 76 191 63 93 191 63 106 191 63 89 191 63 63 191 89 63 191 159 63 153 191 63 104 191 63 65 191 85 63 191 104 63 191 116 63 191 119 63 191 121 63 191 119 63 191 121 63 191 123 63 191 119 63 191 114 63 191 119 63 191 123 63 191 127 63 191 129 63 191 136 63 191 133 63 191 140 63 191 50 50 50 
50 50 50 50 50 50 50 50 50 50 50 50 191 93 63 191 110 63 191 119 63 191 127 63 191 135 63 191 142 63 191 155 63 191 165 63 191 184 63 176 191 63 155 191 63 140 191 63 125 191 63 112 191 63 95 191 63 78 191 63 68 191 63 63 191 63 65 191 63 72 191 63 89 191 63 95 191 63 63 191 72 63 191 125 63 182 191 63 121 191 63 76 191 82 63 191 99 63 191 106 63 191 110 63 191 104 63 191 99 63 191 104 63 191 112 63 191 112 63 191 112 63 191 112 63 191 119 63 191 119 63 191 121 63 191 127 63 191 121 63 191 50 50 50 50 50 50 50 50 50 
50 50 50 50 50 50 50 50 50 191 87 63 191 97 63 191 110 63 191 112 63 191 121 63 191 140 63 191 150 63 191 163 63 191 174 63 187 191 63 170 191 63 148 191 63 127 191 63 123 191 63 112 191 63 93 191 63 82 191 63 72 191 63 63 191 63 63 191 63 63 191 63 68 191 63 63 191 63 63 191 110 63 191 174 63 144 191 63 93 191 72 63 191 95 63 191 106 63 191 104 63 191 91 63 191 87 63 191 85 63 191 95 63 191 106 63 191 110 63 191 112 63 191 110 63 191 116 63 191 116 63 191 116 63 191 114 63 191 50 50 50 50 50 50 50 50 50 50 50 50 
50 50 50 50 50 50 191 82 63 191 85 63 191 97 63 191 110 63 191 114 63 191 127 63 191 142 63 191 155 63 191 170 63 191 184 63 178 191 63 157 191 63 142 191 63 127 191 63 121 191 63 110 191 63 97 191 63 82 191 63 74 191 63 63 191 65 63 191 74 63 191 76 63 191 76 63 191 91 63 191 144 63 174 191 63 116 191 63 70 191 89 63 191 106 63 191 108 63 191 91 63 191 74 63 191 74 63 191 80 63 191 89 63 191 106 63 191 114 63 191 116 63 191 116 63 191 116 63 191 116 63 191 108 63 191 50 50 50 50 50 50 50 50 50 50 50 50 50 50 50 
50 50 50 191 72 63 191 85 63 191 95 63 191 102 63 191 110 63 191 123 63 191 133 63 191 150 63 191 159 63 191 176 63 189 191 63 172 191 63 159 191 63 140 191 63 129 191 63 114 191 63 108 191 63 97 191 63 82 191 63 70 191 63 63 191 72 63 191 82 63 191 89 63 191 91 63 191 118 63 191 178 63 146 191 63 93 191 74 63 191 101 63 191 116 63 191 108 63 191 91 63 191 74 63 191 72 63 191 78 63 191 93 63 191 110 63 191 119 63 191 116 63 191 116 63 191 110 63 191 101 63 191 50 50 50 50 50 50 50 50 50 50 50 50 50 50 50 50 50 50 
50 50 50 191 78 63 191 89 63 191 99 63 191 114 63 191 125 63 191 133 63 191 140 63 191 159 63 191 172 63 191 184 63 184 191 63 167 191 63 150 191 63 140 191 63 127 191 63 119 191 63 108 191 63 97 191 63 80 191 63 63 191 63 63 191 76 63 191 93 63 191 101 63 191 108 63 191 144 63 182 191 63 131 191 63 85 191 89 63 191 123 63 191 133 63 191 129 63 191 104 63 191 85 63 191 74 63 191 80 63 191 95 63 191 112 63 191 119 63 191 121 63 191 108 63 191 101 63 191 50 50 50 50 50 50 50 50 50 50 50 50 50 50 50 50 50 50 50 50 50 
50 50 50 191 82 63 191 97 63 191 112 63 191 121 63 191 127 63 191 142 63 191 146 63 191 165 63 191 174 63 191 191 63 178 191 63 159 191 63 148 191 63 133 191 63 127 191 63 121 191 63 110 191 63 97 191 63 74 191 63 63 191 70 63 191 89 63 191 108 63 191 121 63 191 144 63 191 174 63 172 191 63 131 191 63 82 191 101 63 191 142 63 191 159 63 191 148 63 191 125 63 191 97 63 191 76 63 191 80 63 191 95 63 191 110 63 191 112 63 191 106 63 191 50 50 50 50 50 50 50 50 50 50 50 50 50 50 50 50 50 50 50 50 50 50 50 50 50 50 50 
50 50 50 191 93 63 191 102 63 191 119 63 191 129 63 191 138 63 191 146 63 191 155 63 191 167 63 191 178 63 191 191 63 178 191 63 159 191 63 148 191 63 138 191 63 133 191 63 121 191 63 110 191 63 91 191 63 72 191 63 63 191 82 63 191 104 63 191 125 63 191 142 63 191 159 63 191 178 63 189 191 63 157 191 63 95 191 110 63 191 167 63 191 184 63 191 170 63 191 140 63 191 97 63 191 82 63 191 85 63 191 93 63 191 99 63 191 99 63 191 50 50 50 50 50 50 50 50 50 50 50 50 50 50 50 50 50 50 50 50 50 50 50 50 50 50 50 50 50 50 
50 50 50 191 102 63 191 112 63 191 121 63 191 131 63 191 140 63 191 148 63 191 159 63 191 165 63 191 178 63 187 191 63 174 191 63 157 191 63 146 191 63 142 191 63 131 191 63 121 191 63 106 191 63 89 191 63 63 191 65 63 191 89 63 191 114 63 191 131 63 191 142 63 191 142 63 191 138 63 191 146 63 191 161 63 159 191 106 63 191 182 63 191 191 63 176 189 63 191 150 63 191 110 63 191 93 63 191 82 63 191 87 63 191 87 63 191 50 50 50 50 50 50 50 50 50 50 50 50 50 50 50 50 50 50 50 50 50 50 50 50 50 50 50 50 50 50 50 50 50 
50 50 50 191 112 63 191 121 63 191 129 63 191 138 63 191 144 63 191 148 63 191 159 63 191 165 63 191 180 63 191 191 63 178 191 63 161 191 63 153 191 63 144 191 63 127 191 63 114 191 63 97 191 63 80 191 63 63 191 72 63 191 93 63 191 110 63 191 121 63 191 116 63 191 97 63 191 72 63 191 80 63 191 101 63 191 142 63 80 191 184 63 191 191 63 174 191 63 180 155 63 191 106 63 191 82 63 191 74 63 191 50 50 50 50 50 50 50 50 50 50 50 50 50 50 50 50 50 50 50 50 50 50 50 50 50 50 50 50 50 50 50 50 50 50 50 50 50 50 50 
50 50 50 50 50 50 191 129 63 191 133 63 191 135 63 191 142 63 191 150 63 191 159 63 191 167 63 191 178 63 191 187 63 182 191 63 170 191 63 153 191 63 138 191 63 127 191 63 110 191 63 95 191 63 74 191 63 63 191 72 63 191 91 63 191 101 63 191 99 63 191 78 80 191 63 93 191 63 106 191 63 104 191 63 68 191 63 63 191 138 182 63 191 191 63 165 189 63 191 136 63 191 89 63 191 72 63 191 50 50 50 50 50 50 50 50 50 50 50 50 50 50 50 50 50 50 50 50 50 50 50 50 50 50 50 50 50 50 50 50 50 50 50 50 50 50 50 50 50 50 
50 50 50 50 50 50 191 129 63 191 135 63 191 133 63 191 144 63 191 153 63 191 159 63 191 165 63 191 174 63 191 182 63 174 191 63 170 191 63 153 191 63 133 191 63 116 191 63 102 191 63 89 191 63 72 191 63 63 191 72 63 191 80 63 191 78 63 191 65 87 191 63 112 191 63 125 191 63 136 191 63 131 191 63 116 191 63 63 191 118 140 63 191 189 63 191 153 63 191 106 63 191 72 63 191 50 50 50 50 50 50 50 50 50 50 50 50 50 50 50 50 50 50 50 50 50 50 50 50 50 50 50 50 50 50 50 50 50 50 50 50 50 50 50 50 50 50 50 50 50 
50 50 50 50 50 50 50 50 50 191 135 63 191 138 63 191 144 63 191 148 63 191 157 63 191 165 63 191 174 63 191 180 63 189 191 63 172 191 63 155 191 63 136 191 63 114 191 63 99 191 63 87 191 63 74 191 63 68 191 63 68 191 63 74 191 63 91 191 63 116 191 63 129 191 63 144 191 63 144 191 63 140 191 63 110 191 63 63 191 157 116 63 191 140 63 191 116 63 191 82 63 191 50 50 50 50 50 50 50 50 50 50 50 50 50 50 50 50 50 50 50 50 50 50 50 50 50 50 50 50 50 50 50 50 50 50 50 50 50 50 50 50 50 50 50 50 50 50 50 50 
50 50 50 50 50 50 50 50 50 50 50 50 191 142 63 191 144 63 191 153 63 191 155 63 191 165 63 191 172 63 191 178 63 189 191 63 174 191 63 153 191 63 138 191 63 116 191 63 104 191 63 91 191 63 85 191 63 85 191 63 91 191 63 102 191 63 119 191 63 136 191 63 146 191 63 150 191 63 146 191 63 125 191 63 70 191 63 63 184 191 74 63 191 91 63 191 50 50 50 50 50 50 50 50 50 50 50 50 50 50 50 50 50 50 50 50 50 50 50 50 50 50 50 50 50 50 50 50 50 50 50 50 50 50 50 50 50 50 50 50 50 50 50 50 50 50 50 50 50 50 
50 50 50 50 50 50 50 50 50 50 50 50 50 50 50 191 148 63 191 146 63 191 157 63 191 159 63 191 170 63 191 182 63 189 191 63 174 191 63 157 191 63 140 191 63 121 191 63 108 191 63 99 191 63 102 191 63 106 191 63 112 191 63 125 191 63 140 191 63 148 191 63 153 191 63 150 191 63 133 191 63 95 191 63 63 191 110 63 176 191 63 89 191 50 50 50 50 50 50 50 50 50 50 50 50 50 50 50 50 50 50 50 50 50 50 50 50 50 50 50 50 50 50 50 50 50 50 50 50 50 50 50 50 50 50 50 50 50 50 50 50 50 50 50 50 50 50 50 50 50 
50 50 50 50 50 50 50 50 50 50 50 50 50 50 50 191 148 63 191 148 63 191 157 63 191 161 63 191 170 63 191 180 63 189 191 63 174 191 63 159 191 63 144 191 63 129 191 63 119 191 63 116 191 63 119 191 63 125 191 63 138 191 63 144 191 63 153 191 63 157 191 63 155 191 63 144 191 63 114 191 63 65 191 63 63 191 129 63 167 191 50 50 50 50 50 50 50 50 50 50 50 50 50 50 50 50 50 50 50 50 50 50 50 50 50 50 50 50 50 50 50 50 50 50 50 50 50 50 50 50 50 50 50 50 50 50 50 50 50 50 50 50 50 50 50 50 50 50 50 50 
50 50 50 50 50 50 50 50 50 50 50 50 50 50 50 50 50 50 191 155 63 191 157 63 191 163 63 191 174 63 191 184 63 184 191 63 172 191 63 161 191 63 148 191 63 140 191 63 133 191 63 129 191 63 136 191 63 144 191 63 150 191 63 159 191 63 161 191 63 159 191 63 150 191 63 133 191 63 106 191 63 63 191 87 50 50 50 50 50 50 50 50 50 50 50 50 50 50 50 50 50 50 50 50 50 50 50 50 50 50 50 50 50 50 50 50 50 50 50 50 50 50 50 50 50 50 50 50 50 50 50 50 50 50 50 50 50 50 50 50 50 50 50 50 50 50 50 50 50 50 
50 50 50 50 50 50 50 50 50 50 50 50 50 50 50 50 50 50 50 50 50 191 161 63 191 165 63 191 176 63 191 184 63 182 191 63 176 191 63 165 191 63 159 191 63 153 191 63 146 191 63 150 191 63 153 191 63 155 191 63 161 191 63 167 191 63 163 191 63 159 191 63 148 191 63 131 191 63 97 191 63 50 50 50 50 50 50 50 50 50 50 50 50 50 50 50 50 50 50 50 50 50 50 50 50 50 50 50 50 50 50 50 50 50 50 50 50 50 50 50 50 50 50 50 50 50 50 50 50 50 50 50 50 50 50 50 50 50 50 50 50 50 50 50 50 50 50 50 50 50 
50 50 50 50 50 50 50 50 50 50 50 50 50 50 50 50 50 50 50 50 50 50 50 50 191 165 63 191 176 63 191 182 63 189 191 63 180 191 63 174 191 63 170 191 63 165 191 63 161 191 63 163 191 63 163 191 63 165 191 63 170 191 63 165 191 63 167 191 63 157 191 63 148 191 63 50 50 50 50 50 50 50 50 50 50 50 50 50 50 50 50 50 50 50 50 50 50 50 50 50 50 50 50 50 50 50 50 50 50 50 50 50 50 50 50 50 50 50 50 50 50 50 50 50 50 50 50 50 50 50 50 50 50 50 50 50 50 50 50 50 50 50 50 50 50 50 50 50 50 50 
50 50 50 50 50 50 50 50 50 50 50 50 50 50 50 50 50 50 50 50 50 50 50 50 191 157 63 191 167 63 191 178 63 191 184 63 189 191 63 184 191 63 178 191 63 178 191 63 176 191 63 176 191 63 178 191 63 174 191 63 170 191 63 170 191 63 167 191 63 159 191 63 50 50 50 50 50 50 50 50 50 50 50 50 50 50 50 50 50 50 50 50 50 50 50 50 50 50 50 50 50 50 50 50 50 50 50 50 50 50 50 50 50 50 50 50 50 50 50 50 50 50 50 50 50 50 50 50 50 50 50 50 50 50 50 50 50 50 50 50 50 50 50 50 50 50 50 50 50 50 
50 50 50 50 50 50 50 50 50 50 50 50 50 50 50 50 50 50 50 50 50 50 50 50 50 50 50 191 165 63 191 174 63 191 178 63 191 184 63 191 191 63 189 191 63 189 191 63 189 191 63 187 191 63 182 191 63 180 191 63 174 191 63 172 191 63 167 191 63 50 50 50 50 50 50 50 50 50 50 50 50 50 50 50 50 50 50 50 50 50 50 50 50 50 50 50 50 50 50 50 50 50 50 50 50 50 50 50 50 50 50 50 50 50 50 50 50 50 50 50 50 50 50 50 50 50 50 50 50 50 50 50 50 50 50 50 50 50 50 50 50 50 50 50 50 50 50 50 50 50 
50 50 50 50 50 50 50 50 50 50 50 50 50 50 50 50 50 50 50 50 50 50 50 50 50 50 50 50 50 50 191 165 63 191 170 63 191 174 63 191 178 63 191 182 63 191 182 63 191 187 63 191 189 63 187 191 63 182 191 63 178 191 63 50 50 50 50 50 50 50 50 50 50 50 50 50 50 50 50 50 50 50 50 50 50 50 50 50 50 50 50 50 50 50 50 50 50 50 50 50 50 50 50 50 50 50 50 50 50 50 50 50 50 50 50 50 50 50 50 50 50 50 50 50 50 50 50 50 50 50 50 50 50 50 50 50 50 50 50 50 50 50 50 50 50 50 50 50 50 50 
50 50 50 50 50 50 50 50 50 50 50 50 50 50 50 50 50 50 50 50 50 50 50 50 50 50 50 50 50 50 50 50 50 191 161 63 191 165 63 191 172 63 191 172 63 191 174 63 191 178 63 191 182 63 191 189 63 189 191 63 50 50 50 50 50 50 50 50 50 50 50 50 50 50 50 50 50 50 50 50 50 50 50 50 50 50 50 50 50 50 50 50 50 50 50 50 50 50 50 50 50 50 50 50 50 50 50 50 50 50 50 50 50 50 50 50 50 50 50 50 50 50 50 50 50 50 50 50 50 50 50 50 50 50 50 50 50 50 50 50 50 50 50 50 50 50 50 50 50 50 
50 50 50 50 50 50 50 50 50 50 50 50 50 50 50 50 50 50 50 50 50 50 50 50 50 50 50 50 50 50 50 50 50 191 155 63 191 159 63 191 159 63 191 165 63 191 170 63 191 172 63 191 176 63 191 182 63 50 50 50 50 50 50 50 50 50 50 50 50 50 50 50 50 50 50 50 50 50 50 50 50 50 50 50 50 50 50 50 50 50 50 50 50 50 50 50 50 50 50 50 50 50 50 50 50 50 50 50 50 50 50 50 50 50 50 50 50 50 50 50 50 50 50 50 50 50 50 50 50 50 50 50 50 50 50 50 50 50 50 50 50 50 50 50 50 50 50 50 50 50 
50 50 50 50 50 50 50 50 50 50 50 50 50 50 50 50 50 50 50 50 50 50 50 50 50 50 50 50 50 50 50 50 50 50 50 50 191 150 63 191 157 63 191 159 63 191 159 63 191 163 63 50 50 50 50 50 50 50 50 50 50 50 50 50 50 50 50 50 50 50 50 50 50 50 50 50 50 50 50 50 50 50 50 50 50 50 50 50 50 50 50 50 50 50 50 50 50 50 50 50 50 50 50 50 50 50 50 50 50 50 50 50 50 50 50 50 50 50 50 50 50 50 50 50 50 50 50 50 50 50 50 50 50 50 50 50 50 50 50 50 50 50 50 50 50 50 50 50 50 50 
50 50 50 50 50 50 50 50 50 50 50 50 50 50 50 50 50 50 50 50 50 50 50 50 50 50 50 50 50 50 50 50 50 50 50 50 50 50 50 191 148 63 191 150 63 191 153 63 50 50 50 50 50 50 50 50 50 50 50 50 50 50 50 50 50 50 50 50 50 50 50 50 50 50 50 50 50 50 50 50 50 50 50 50 50 50 50 50 50 50 50 50 50 50 50 50 50 50 50 50 50 50 50 50 50 50 50 50 50 50 50 50 50 50 50 50 50 50 50 50 50 50 50 50 50 50 50 50 50 50 50 50 50 50 50 50 50 50 50 50 50 50 50 50 50 50 50 50 50 50 
