P3
50 50
255
0 0 0 0 0 0 0 0 0 0 0 0 0 0 0 0 0 0 0 0 0 0 0 0 0 0 0 0 0 0 0 0 0 0 0 0 0 0 0 0 0 0 0 0 0 0 0 0 0 0 0 0 0 0 0 0 0 0 0 0 0 0 0 0 0 0 0 0 0 0 0 0 0 0 0 0 0 0 0 0 0 0 0 0 0 0 0 0 0 0 0 0 0 0 0 0 0 0 0 0 0 0 0 0 0 0 0 0 0 0 0 0 0 0 0 0 0 0 0 0 0 0 0 0 0 0 0 0 0 0 0 0 0 0 0 0 0 0 0 0 0 0 0 0 0 0 0 0 0 0 
0 0 0 0 0 0 0 0 0 0 0 0 0 0 0 0 0 0 0 0 0 0 0 0 0 0 0 0 0 0 0 0 0 0 0 0 0 0 0 0 0 0 0 0 0 0 0 0 0 0 0 0 0 0 0 0 0 0 0 0 0 0 0 0 0 0 0 0 0 0 0 0 0 0 0 0 0 0 0 0 0 0 0 0 0 0 0 0 0 0 0 0 0 0 0 0 0 0 0 0 0 0 0 0 0 102 191 63 159 191 63 78 191 63 112 191 63 0 0 0 0 0 0 0 0 0 0 0 0 0 0 0 0 0 0 0 0 0 0 0 0 0 0 0 0 0 0 0 0 0 
0 0 0 0 0 0 0 0 0 0 0 0 0 0 0 0 0 0 0 0 0 0 0 0 0 0 0 0 0 0 0 0 0 0 0 0 0 0 0 0 0 0 0 0 0 0 0 0 0 0 0 0 0 0 0 0 0 0 0 0 0 0 0 0 0 0 0 0 0 0 0 0 0 0 0 0 0 0 0 0 0 0 0 0 0 0 0 0 0 0 0 0 0 0 0 0 0 0 0 0 0 0 167 191 63 191 170 63 191 178 63 89 191 63 82 191 63 133 191 63 167 191 63 0 0 0 0 0 0 0 0 0 0 0 0 0 0 0 0 0 0 0 0 0 0 0 0 0 0 0 
0 0 0 0 0 0 0 0 0 0 0 0 0 0 0 0 0 0 0 0 0 0 0 0 0 0 0 0 0 0 0 0 0 0 0 0 0 0 0 0 0 0 0 0 0 0 0 0 0 0 0 0 0 0 0 0 0 0 0 0 0 0 0 0 0 0 0 0 0 0 0 0 0 0 0 0 0 0 0 0 0 0 0 0 0 0 0 0 0 0 0 0 0 0 0 0 129 191 63 180 191 63 191 161 63 191 125 63 191 97 63 133 191 63 63 191 63 106 191 63 191 165 63 191 182 63 191 182 63 0 0 0 0 0 0 0 0 0 0 0 0 0 0 0 0 0 0 0 0 0 
0 0 0 0 0 0 0 0 0 0 0 0 0 0 0 0 0 0 0 0 0 0 0 0 0 0 0 0 0 0 0 0 0 0 0 0 0 0 0 0 0 0 0 0 0 0 0 0 0 0 0 0 0 0 0 0 0 0 0 0 0 0 0 0 0 0 0 0 0 0 0 0 0 0 0 0 0 0 0 0 0 0 0 0 0 0 0 0 0 0 65 191 63 148 191 63 189 191 63 191 155 63 191 114 63 191 89 63 191 87 63 191 135 63 112 191 63 63 191 72 80 191 63 191 133 63 191 125 63 191 112 63 191 163 63 0 0 0 0 0 0 0 0 0 0 0 0 0 0 0 
0 0 0 0 0 0 0 0 0 0 0 0 0 0 0 0 0 0 0 0 0 0 0 0 0 0 0 0 0 0 0 0 0 0 0 0 0 0 0 0 0 0 0 0 0 0 0 0 0 0 0 0 0 0 0 0 0 0 0 0 0 0 0 0 0 0 0 0 0 0 0 0 0 0 0 0 0 0 0 0 0 0 0 0 63 191 104 119 191 63 159 191 63 191 184 63 191 146 63 191 99 63 191 89 63 191 91 63 191 102 63 191 106 63 191 138 63 136 191 63 63 191 67 63 191 97 63 191 91 63 191 104 63 191 80 150 191 63 0 0 0 0 0 0 0 0 0 0 0 0 
0 0 0 0 0 0 0 0 0 0 0 0 0 0 0 0 0 0 0 0 0 0 0 0 0 0 0 0 0 0 0 0 0 0 0 0 0 0 0 0 0 0 0 0 0 0 0 0 0 0 0 0 0 0 0 0 0 0 0 0 0 0 0 0 0 0 0 0 0 0 0 0 0 0 0 0 0 0 0 0 0 87 191 63 131 191 63 167 191 63 191 176 63 191 119 63 191 99 63 191 85 63 191 95 63 191 106 63 191 116 63 191 125 63 191 106 63 191 93 63 191 157 63 140 191 63 72 191 63 63 191 89 63 191 118 63 191 165 63 191 121 150 191 63 0 0 0 0 0 0 
0 0 0 0 0 0 0 0 0 0 0 0 0 0 0 0 0 0 0 0 0 0 0 0 0 0 0 0 0 0 0 0 0 0 0 0 0 0 0 0 0 0 0 0 0 0 0 0 0 0 0 0 0 0 0 0 0 0 0 0 0 0 0 0 0 0 0 0 0 0 0 0 0 0 0 63 191 97 99 191 63 138 191 63 176 191 63 191 150 63 191 112 63 191 97 63 191 89 63 191 99 63 191 110 63 191 119 63 191 129 63 191 140 63 191 125 63 191 108 63 191 99 63 191 116 63 191 114 63 191 157 63 150 191 63 63 191 101 63 191 157 63 191 159 191 159 63 0 0 0 
0 0 0 0 0 0 0 0 0 0 0 0 0 0 0 0 0 0 0 0 0 0 0 0 0 0 0 0 0 0 0 0 0 0 0 0 0 0 0 0 0 0 0 0 0 0 0 0 0 0 0 0 0 0 0 0 0 0 0 0 0 0 0 0 0 0 0 0 0 63 191 144 68 191 63 108 191 63 146 191 63 191 182 63 191 125 63 191 112 63 191 91 63 191 93 63 191 102 63 191 112 63 191 123 63 191 133 63 191 144 63 191 155 63 191 144 63 191 123 63 191 112 63 191 104 63 191 172 63 191 91 63 191 87 63 191 116 63 121 191 63 63 191 163 63 191 140 191 110 63 
0 0 0 0 0 0 0 0 0 0 0 0 0 0 0 0 0 0 0 0 0 0 0 0 0 0 0 0 0 0 0 0 0 0 0 0 0 0 0 0 0 0 0 0 0 0 0 0 0 0 0 0 0 0 0 0 0 0 0 0 0 0 0 63 191 178 63 191 89 78 191 63 114 191 63 170 191 63 191 155 63 191 123 63 191 106 63 191 85 63 191 95 63 191 106 63 191 116 63 191 127 63 191 138 63 191 148 63 191 157 63 191 167 63 191 165 63 191 140 63 191 125 63 191 106 63 191 116 63 191 114 63 191 95 63 191 102 63 191 110 63 72 191 63 63 191 184 106 191 63 
0 0 0 0 0 0 0 0 0 0 0 0 0 0 0 0 0 0 0 0 0 0 0 0 0 0 0 0 0 0 0 0 0 0 0 0 0 0 0 0 0 0 0 0 0 0 0 0 0 0 0 0 0 0 0 0 0 0 0 0 63 191 133 63 191 78 85 191 63 138 191 63 191 184 63 191 135 63 191 121 63 191 99 63 191 89 63 191 99 63 191 110 63 191 121 63 191 131 63 191 140 63 191 150 63 191 161 63 191 172 63 191 182 63 191 184 63 191 157 63 191 140 63 191 106 63 191 106 63 191 165 63 191 106 63 191 106 63 191 119 63 155 191 63 63 191 155 63 191 142 
0 0 0 0 0 0 0 0 0 0 0 0 0 0 0 0 0 0 0 0 0 0 0 0 0 0 0 0 0 0 0 0 0 0 0 0 0 0 0 0 0 0 0 0 0 0 0 0 0 0 0 0 0 0 63 191 182 63 191 108 63 191 72 106 191 63 165 191 63 191 159 63 191 135 63 191 114 63 191 93 63 191 93 63 191 104 63 191 114 63 191 123 63 191 133 63 191 144 63 191 155 63 191 165 63 191 176 63 191 187 63 184 191 63 180 191 63 191 174 63 191 153 63 191 112 63 191 108 63 191 116 63 191 114 63 191 108 63 191 114 63 170 191 63 63 191 161 63 191 129 
0 0 0 0 0 0 0 0 0 0 0 0 0 0 0 0 0 0 0 0 0 0 0 0 0 0 0 0 0 0 0 0 0 0 0 0 0 0 0 0 0 0 0 0 0 0 0 0 63 165 191 63 191 140 63 191 101 74 191 63 133 191 63 191 189 63 191 146 63 191 129 63 191 108 63 191 87 63 191 97 63 191 106 63 191 116 63 191 127 63 191 138 63 191 148 63 191 159 63 191 170 63 191 180 63 191 189 63 182 191 63 172 191 63 161 191 63 187 191 63 191 167 63 191 125 63 191 112 63 191 108 63 191 150 63 191 116 63 191 121 63 133 191 63 63 159 191 167 191 63 
0 0 0 0 0 0 0 0 0 0 0 0 0 0 0 0 0 0 0 0 0 0 0 0 0 0 0 0 0 0 0 0 0 0 0 0 0 0 0 0 0 0 63 131 191 63 191 169 63 191 131 63 191 84 102 191 63 161 191 63 191 163 63 191 144 63 191 123 63 191 102 63 191 91 63 191 99 63 191 110 63 191 121 63 191 131 63 191 142 63 191 153 63 191 163 63 191 172 63 191 182 63 189 191 63 178 191 63 167 191 63 157 191 63 146 191 63 165 191 63 191 180 63 191 140 63 191 116 63 191 110 63 191 119 63 191 125 63 191 150 63 63 191 186 63 167 191 191 180 63 
0 0 0 0 0 0 0 0 0 0 0 0 0 0 0 0 0 0 0 0 0 0 0 0 0 0 0 0 0 0 0 0 0 0 0 0 0 0 0 63 159 191 63 191 161 63 191 116 70 191 63 129 191 63 189 191 63 191 159 63 191 138 63 191 116 63 191 95 63 191 93 63 191 104 63 191 114 63 191 125 63 191 135 63 191 146 63 191 155 63 191 165 63 191 176 63 191 187 63 184 191 63 174 191 63 163 191 63 153 191 63 144 191 63 133 191 63 144 191 63 191 191 63 191 153 63 191 116 63 191 114 63 191 110 63 191 131 63 63 191 67 63 140 191 63 191 161 191 178 63 
0 0 0 0 0 0 0 0 0 0 0 0 0 0 0 0 0 0 0 0 0 0 0 0 0 0 0 0 0 0 0 0 0 63 125 191 63 191 189 63 191 146 63 191 89 97 191 63 157 191 63 191 170 63 191 153 63 191 131 63 191 110 63 191 89 63 191 97 63 191 108 63 191 119 63 191 129 63 191 138 63 191 148 63 191 159 63 191 170 63 191 180 63 191 191 63 180 191 63 170 191 63 161 191 63 150 191 63 140 191 63 129 191 63 119 191 63 123 191 63 174 191 63 191 167 63 191 125 63 191 116 63 191 112 63 191 106 63 63 191 125 63 127 191 63 191 121 191 142 63 
0 0 0 0 0 0 0 0 0 0 0 0 0 0 0 0 0 0 0 0 0 0 0 0 0 0 0 63 93 191 63 161 191 63 191 178 63 191 121 65 191 63 125 191 63 184 191 63 191 167 63 191 146 63 191 125 63 191 104 63 191 91 63 191 102 63 191 112 63 191 121 63 191 131 63 191 142 63 191 153 63 191 163 63 191 174 63 191 184 63 187 191 63 178 191 63 167 191 63 157 191 63 146 191 63 136 191 63 125 191 63 114 191 63 106 191 63 104 191 63 159 191 63 191 180 63 191 140 63 191 121 63 191 116 63 191 135 63 63 191 142 63 129 191 65 191 63 191 123 63 
0 0 0 0 0 0 0 0 0 0 0 0 0 0 0 0 0 0 0 0 0 67 63 191 63 121 191 63 172 191 63 191 150 63 191 93 93 191 63 153 191 63 191 180 63 191 161 63 191 140 63 191 119 63 191 97 63 191 95 63 191 104 63 191 114 63 191 125 63 191 135 63 191 146 63 191 157 63 191 167 63 191 178 63 191 187 63 184 191 63 174 191 63 163 191 63 153 191 63 142 191 63 131 191 63 123 191 63 112 191 63 102 191 63 91 191 63 85 191 63 146 191 63 187 191 63 191 153 63 191 125 63 191 119 63 191 125 63 63 165 191 63 155 191 80 191 63 191 131 63 
0 0 0 0 0 0 0 0 0 0 0 0 0 0 0 0 0 0 63 87 191 63 140 191 63 191 182 63 191 123 63 191 65 121 191 63 180 191 63 191 176 63 191 155 63 191 133 63 191 112 63 191 91 63 191 97 63 191 108 63 191 119 63 191 129 63 191 140 63 191 150 63 191 161 63 191 170 63 191 180 63 191 191 63 180 191 63 170 191 63 159 191 63 148 191 63 140 191 63 129 191 63 119 191 63 108 191 63 97 191 63 87 191 63 76 191 63 68 191 63 125 191 63 174 191 63 191 167 63 191 127 63 191 163 63 63 191 70 63 97 191 63 191 138 191 148 63 191 140 63 
0 0 0 0 0 0 0 0 0 0 0 0 74 63 191 63 108 191 63 167 191 63 191 155 63 191 97 89 191 63 148 191 63 191 191 63 191 170 63 191 148 63 191 127 63 191 106 63 191 91 63 191 102 63 191 112 63 191 123 63 191 133 63 191 144 63 191 153 63 191 163 63 191 174 63 191 184 63 187 191 63 176 191 63 165 191 63 157 191 63 146 191 63 136 191 63 125 191 63 114 191 63 104 191 63 93 191 63 82 191 63 74 191 63 63 191 63 63 191 74 104 191 63 161 191 63 191 180 63 182 191 63 63 191 165 63 91 191 63 102 191 170 191 63 191 180 63 191 146 63 
0 0 0 0 0 0 108 63 191 148 63 191 63 136 191 63 191 186 63 191 127 63 191 70 116 191 63 176 191 63 191 184 63 191 163 63 191 142 63 191 121 63 191 99 63 191 95 63 191 106 63 191 116 63 191 127 63 191 135 63 191 146 63 191 157 63 191 167 63 191 178 63 191 189 63 182 191 63 172 191 63 163 191 63 153 191 63 142 191 63 131 191 63 121 191 63 110 191 63 99 191 63 91 191 63 80 191 63 70 191 63 63 191 67 63 191 78 63 191 89 85 191 63 146 191 63 191 178 63 63 191 114 63 76 191 63 72 191 63 191 161 191 91 63 191 187 63 191 155 63 
0 0 0 114 63 191 176 63 191 191 63 184 99 63 191 63 191 101 85 191 63 144 191 63 182 191 63 191 178 63 191 157 63 191 135 63 191 114 63 191 93 63 191 99 63 191 110 63 191 119 63 191 129 63 191 140 63 191 150 63 191 161 63 191 172 63 191 182 63 189 191 63 180 191 63 170 191 63 159 191 63 148 191 63 138 191 63 127 191 63 116 191 63 108 191 63 97 191 63 87 191 63 76 191 63 65 191 63 63 191 72 63 191 82 63 191 91 63 191 101 63 191 87 63 191 131 63 191 121 63 123 191 70 63 191 63 150 191 63 191 65 191 144 63 187 191 63 191 163 63 
0 0 0 63 82 191 153 63 191 191 63 172 142 63 191 63 191 161 167 191 63 189 191 63 191 172 63 191 150 63 191 129 63 191 108 63 191 93 63 191 102 63 191 112 63 191 123 63 191 133 63 191 144 63 191 155 63 191 165 63 191 176 63 191 184 63 187 191 63 176 191 63 165 191 63 155 191 63 144 191 63 133 191 63 125 191 63 114 191 63 104 191 63 93 191 63 82 191 63 72 191 63 63 191 65 63 191 70 63 191 76 63 191 82 63 191 91 63 191 97 63 191 63 63 191 135 63 140 191 91 63 191 63 121 191 63 191 172 110 191 63 191 150 63 180 191 63 191 170 63 
0 0 0 63 99 191 133 63 191 191 63 187 187 63 191 63 167 191 191 172 63 191 165 63 191 144 63 191 123 63 191 102 63 191 95 63 191 106 63 191 116 63 191 127 63 191 138 63 191 148 63 191 159 63 191 167 63 191 178 63 191 189 63 182 191 63 172 191 63 161 191 63 150 191 63 142 191 63 131 191 63 123 191 63 116 191 63 108 191 63 102 191 63 95 191 63 89 191 63 80 191 63 74 191 63 68 191 63 63 191 65 63 191 72 63 191 78 91 191 63 184 191 63 191 187 63 63 170 191 91 63 191 63 172 191 63 191 108 191 191 63 191 159 63 172 191 63 191 178 63 
0 0 0 63 191 186 85 63 191 163 63 191 191 63 161 63 174 191 191 131 63 191 138 63 191 116 63 191 95 63 191 99 63 191 110 63 191 121 63 191 131 63 191 142 63 191 150 63 191 161 63 191 172 63 191 182 63 189 191 63 182 191 63 174 191 63 167 191 63 159 191 63 153 191 63 146 191 63 140 191 63 133 191 63 127 191 63 119 191 63 112 191 63 106 191 63 99 191 63 93 191 63 87 191 63 78 191 63 72 191 63 65 191 63 87 191 63 146 191 63 191 146 63 70 191 63 93 63 191 70 63 191 63 191 129 159 191 63 191 146 63 191 165 63 157 191 63 0 0 0 
0 0 0 63 191 106 63 74 191 150 63 191 191 63 184 63 133 191 153 191 63 191 91 63 191 93 63 191 104 63 191 114 63 191 125 63 191 133 63 191 142 63 191 148 63 191 157 63 191 163 63 191 170 63 191 178 63 191 184 63 191 191 63 184 191 63 178 191 63 172 191 63 163 191 63 157 191 63 150 191 63 144 191 63 138 191 63 131 191 63 125 191 63 116 191 63 110 191 63 104 191 63 97 191 63 91 191 63 85 191 63 85 191 63 144 191 63 191 180 63 180 191 63 63 191 182 127 63 191 63 72 191 191 191 63 191 150 63 191 142 63 191 174 63 142 191 63 0 0 0 
0 0 0 165 191 63 63 191 169 129 63 191 191 63 187 165 63 191 63 191 189 161 191 63 191 99 63 191 106 63 191 112 63 191 119 63 191 125 63 191 131 63 191 140 63 191 146 63 191 153 63 191 159 63 191 165 63 191 172 63 191 180 63 191 187 63 189 191 63 182 191 63 176 191 63 170 191 63 161 191 63 155 191 63 148 191 63 142 191 63 136 191 63 129 191 63 121 191 63 114 191 63 108 191 63 102 191 63 99 191 63 140 191 63 191 182 63 191 133 63 140 191 63 63 146 191 129 63 191 63 119 191 191 142 63 191 161 63 191 148 63 191 180 63 144 191 63 0 0 0 
0 0 0 191 121 63 63 191 63 63 123 191 184 63 191 191 63 180 63 70 191 63 191 63 191 135 63 191 99 63 191 104 63 191 108 63 191 114 63 191 121 63 191 127 63 191 135 63 191 142 63 191 148 63 191 155 63 191 161 63 191 167 63 191 174 63 191 182 63 191 189 63 187 191 63 180 191 63 174 191 63 167 191 63 159 191 63 153 191 63 146 191 63 140 191 63 133 191 63 127 191 63 119 191 63 112 191 63 138 191 63 191 184 63 191 135 63 191 144 63 189 191 63 63 144 191 150 63 191 63 176 191 191 123 63 191 159 63 191 159 63 191 189 63 146 191 63 0 0 0 
0 0 0 191 133 63 63 191 101 80 63 191 159 63 191 191 63 165 144 63 191 63 191 186 136 191 63 191 102 63 191 99 63 191 104 63 191 106 63 191 110 63 191 116 63 191 123 63 191 129 63 191 138 63 191 144 63 191 150 63 191 157 63 191 163 63 191 170 63 191 178 63 191 184 63 191 191 63 184 191 63 178 191 63 172 191 63 165 191 63 157 191 63 150 191 63 144 191 63 138 191 63 131 191 63 140 191 63 191 189 63 191 140 63 191 140 63 191 142 63 191 138 63 63 178 191 155 63 191 97 63 191 191 127 63 191 146 63 191 167 63 187 191 63 146 191 63 0 0 0 
0 0 0 146 191 63 63 191 99 63 131 191 146 63 191 191 63 176 140 63 191 63 89 191 63 191 112 191 191 63 191 131 63 191 116 63 191 106 63 191 106 63 191 110 63 191 114 63 191 119 63 191 125 63 191 131 63 191 140 63 191 146 63 191 153 63 191 159 63 191 165 63 191 172 63 191 180 63 191 187 63 189 191 63 182 191 63 176 191 63 170 191 63 161 191 63 155 191 63 148 191 63 146 191 63 191 191 63 191 142 63 191 138 63 191 135 63 191 135 63 191 146 63 63 191 140 108 63 191 155 63 191 80 191 63 191 144 63 191 178 63 178 191 63 148 191 63 0 0 0 
0 0 0 0 0 0 172 191 63 63 184 191 123 63 191 191 63 189 191 63 184 97 63 191 63 191 186 119 191 63 191 129 63 191 146 63 191 140 63 191 131 63 191 119 63 191 110 63 191 114 63 191 119 63 191 123 63 191 127 63 191 133 63 191 142 63 191 148 63 191 155 63 191 161 63 191 167 63 191 174 63 191 182 63 191 189 63 187 191 63 180 191 63 174 191 63 167 191 63 165 191 63 189 191 63 191 144 63 191 135 63 191 129 63 191 129 63 191 148 63 191 133 63 63 191 70 63 65 191 180 63 191 148 191 63 191 142 63 191 187 63 174 191 63 150 191 63 0 0 0 
0 0 0 0 0 0 0 0 0 78 191 63 63 138 191 180 63 191 191 63 163 129 63 191 63 121 191 63 191 63 191 148 63 191 129 63 191 157 63 191 150 63 191 144 63 191 140 63 191 133 63 191 121 63 191 114 63 191 121 63 191 125 63 191 129 63 191 138 63 191 144 63 191 150 63 191 157 63 191 163 63 191 170 63 191 176 63 191 184 63 191 191 63 184 191 63 178 191 63 187 191 63 191 146 63 191 135 63 191 123 63 191 123 63 191 135 63 191 135 63 191 148 63 174 191 63 63 123 191 182 63 191 63 180 191 191 148 63 184 191 63 167 191 63 163 191 63 0 0 0 
0 0 0 0 0 0 0 0 0 191 127 63 74 191 63 119 63 191 191 63 184 184 63 191 63 85 191 63 191 112 170 191 63 191 116 63 191 135 63 191 167 63 191 161 63 191 155 63 191 150 63 191 144 63 191 138 63 191 133 63 191 121 63 191 121 63 191 129 63 191 133 63 191 140 63 191 146 63 191 153 63 191 159 63 191 165 63 191 172 63 191 178 63 191 187 63 191 189 63 191 148 63 191 133 63 191 123 63 191 119 63 191 123 63 191 142 63 191 138 63 191 142 63 191 150 63 63 174 191 191 63 191 63 133 191 191 174 63 176 191 63 155 191 63 176 191 63 0 0 0 
0 0 0 0 0 0 0 0 0 0 0 0 191 180 63 104 63 191 170 63 191 163 63 191 123 63 191 63 176 191 72 191 63 191 165 63 191 135 63 191 150 63 191 178 63 191 172 63 191 167 63 191 161 63 191 155 63 191 148 63 191 144 63 191 138 63 191 131 63 191 123 63 191 129 63 191 135 63 191 142 63 191 148 63 191 155 63 191 161 63 191 167 63 191 172 63 191 150 63 191 133 63 191 123 63 191 112 63 191 119 63 191 146 63 191 135 63 191 142 63 191 123 63 191 159 63 63 161 191 191 63 187 63 167 191 182 191 63 165 191 63 140 191 63 189 191 63 0 0 0 
0 0 0 0 0 0 0 0 0 0 0 0 191 129 63 63 189 191 191 63 182 191 63 159 153 63 191 63 104 191 63 191 101 178 191 63 191 142 63 191 172 63 191 172 63 191 189 63 191 182 63 191 178 63 191 172 63 191 165 63 191 159 63 191 155 63 191 148 63 191 142 63 191 138 63 191 131 63 191 127 63 191 135 63 191 144 63 191 150 63 191 153 63 191 153 63 191 133 63 191 123 63 191 106 63 191 119 63 191 148 63 191 135 63 191 140 63 191 114 63 191 135 63 93 191 63 63 191 144 191 63 174 63 191 110 170 191 63 155 191 63 131 191 63 191 189 63 0 0 0 
0 0 0 0 0 0 0 0 0 0 0 0 0 0 0 140 191 63 119 63 191 191 63 148 165 63 191 99 63 191 63 170 191 108 191 63 191 127 63 191 129 63 191 163 63 187 191 63 182 191 63 189 191 63 191 189 63 191 182 63 191 176 63 191 172 63 191 165 63 191 159 63 191 153 63 191 148 63 191 142 63 191 129 63 191 123 63 191 191 63 87 191 63 65 191 63 68 191 63 68 191 63 63 191 93 63 191 127 63 191 140 63 191 182 63 95 191 97 63 191 123 63 191 153 63 191 191 63 174 176 63 191 89 191 63 148 191 63 140 191 63 121 191 63 184 191 63 0 0 0 
0 0 0 0 0 0 0 0 0 0 0 0 0 0 0 191 99 63 63 184 191 191 63 191 191 63 165 157 63 191 78 63 191 63 187 191 97 191 63 191 182 63 191 163 63 191 182 63 129 191 63 170 191 63 191 140 63 191 133 63 191 129 63 191 125 63 191 114 63 191 114 63 191 108 63 191 104 63 191 95 63 191 127 63 153 191 63 68 191 63 63 191 159 63 182 191 63 161 191 63 121 191 63 68 191 127 63 191 191 63 191 191 63 159 191 63 155 191 63 157 191 63 167 191 63 144 191 63 153 191 63 172 63 191 131 157 191 63 112 191 63 112 191 63 170 191 63 0 0 0 
0 0 0 0 0 0 0 0 0 0 0 0 0 0 0 0 0 0 102 191 63 146 63 191 191 63 144 172 63 191 129 63 191 63 72 191 63 189 191 63 191 72 129 191 63 119 191 63 65 191 63 63 191 89 99 191 63 167 191 63 191 146 63 191 116 63 191 114 63 191 112 63 191 110 63 191 138 63 178 191 63 74 191 63 63 191 161 63 165 191 63 106 191 63 63 191 93 63 191 161 63 191 191 63 165 191 63 155 191 63 170 191 63 127 191 63 127 191 63 140 191 63 144 191 63 161 191 63 153 191 63 144 191 63 178 63 136 191 63 191 135 99 191 63 0 0 0 0 0 0 
0 0 0 0 0 0 0 0 0 0 0 0 0 0 0 0 0 0 0 0 0 63 191 182 184 63 191 180 63 191 176 63 191 121 63 191 63 80 191 63 170 191 63 191 138 63 191 121 63 191 161 63 191 174 63 191 116 63 191 74 119 191 63 153 191 63 161 191 63 157 191 63 125 191 63 68 191 63 63 191 131 63 170 191 63 95 191 89 63 191 123 63 191 182 63 191 191 63 163 191 63 165 191 63 131 191 63 138 191 63 144 191 63 148 191 63 165 191 63 170 191 63 170 191 63 167 191 63 167 191 63 165 191 63 153 180 63 191 63 191 184 129 191 63 0 0 0 0 0 0 
0 0 0 0 0 0 0 0 0 0 0 0 0 0 0 0 0 0 0 0 0 191 170 63 72 63 191 191 63 142 191 63 189 176 63 191 121 63 191 82 63 191 63 85 191 63 110 191 63 104 191 63 129 191 63 170 191 63 191 176 63 191 138 63 191 118 63 191 112 63 191 123 63 191 174 63 133 191 63 74 191 99 63 191 142 63 191 191 63 189 191 63 165 191 63 170 191 63 136 191 63 144 191 63 159 191 63 189 170 63 191 142 63 191 112 63 191 106 63 191 142 63 191 157 63 191 167 63 191 191 63 180 191 63 167 191 63 127 174 63 191 63 191 91 0 0 0 0 0 0 
0 0 0 0 0 0 0 0 0 0 0 0 0 0 0 0 0 0 0 0 0 0 0 0 63 191 70 172 63 191 191 63 142 191 63 189 178 63 191 140 63 191 112 63 191 93 63 191 82 63 191 78 63 191 78 63 191 78 63 191 63 80 191 63 97 191 63 95 191 72 63 191 119 63 191 157 63 191 187 63 191 191 63 176 191 63 172 191 63 172 191 63 125 191 63 144 191 63 180 85 63 191 63 174 191 63 187 191 63 176 191 63 161 191 63 159 191 63 148 191 63 110 191 89 63 191 148 63 191 178 63 191 191 63 161 191 63 178 191 63 184 63 184 191 0 0 0 0 0 0 
0 0 0 0 0 0 0 0 0 0 0 0 0 0 0 0 0 0 0 0 0 0 0 0 0 0 0 63 191 186 180 63 191 191 63 140 191 63 184 189 63 191 174 63 191 155 63 191 153 63 191 176 63 191 184 63 191 191 63 184 191 63 180 191 63 182 189 63 191 191 63 191 191 63 174 191 63 146 191 63 191 191 63 153 191 63 129 191 63 174 125 63 191 63 191 165 63 191 127 102 191 63 123 191 63 127 191 63 102 191 63 63 191 82 63 191 140 63 191 148 63 176 191 63 102 191 93 63 191 174 63 191 191 63 161 191 63 174 191 63 172 63 191 186 0 0 0 0 0 0 
0 0 0 0 0 0 0 0 0 0 0 0 0 0 0 0 0 0 0 0 0 0 0 0 0 0 0 191 138 63 63 167 191 180 63 191 191 63 138 184 63 191 191 63 178 191 63 176 191 63 174 191 63 172 189 63 191 191 63 129 191 63 131 191 63 131 191 63 157 191 63 157 191 63 155 191 63 157 191 63 159 180 63 191 65 63 191 63 191 174 144 191 63 191 155 63 191 165 63 191 176 63 191 182 63 191 174 63 191 172 63 189 191 63 121 191 63 63 191 84 63 191 184 63 104 191 106 63 191 191 63 174 191 63 146 191 63 146 108 63 191 125 191 63 0 0 0 0 0 0 
0 0 0 0 0 0 0 0 0 0 0 0 0 0 0 0 0 0 0 0 0 0 0 0 0 0 0 0 0 0 191 110 63 63 191 127 101 63 191 187 63 191 191 63 138 191 63 136 191 63 138 191 63 146 191 63 187 182 63 191 144 63 191 163 63 191 138 63 191 127 63 191 78 63 191 63 153 191 63 191 129 133 191 63 191 165 63 191 153 63 191 144 63 191 144 63 191 155 63 191 163 63 191 161 63 191 165 63 191 155 63 191 161 63 191 170 63 82 191 63 63 170 191 63 74 191 191 63 187 191 63 144 191 63 148 191 63 170 63 191 165 0 0 0 0 0 0 0 0 0 
0 0 0 0 0 0 0 0 0 0 0 0 0 0 0 0 0 0 0 0 0 0 0 0 0 0 0 0 0 0 0 0 0 0 0 0 191 189 63 63 191 93 63 184 191 63 121 191 63 146 191 63 191 182 63 191 112 80 191 63 99 191 63 133 191 63 127 191 63 191 180 63 191 142 63 191 135 63 191 163 63 187 191 63 155 191 63 133 191 63 127 191 63 191 172 63 191 153 63 191 153 63 191 163 63 191 150 63 191 153 63 191 138 63 191 161 63 63 191 82 63 131 191 155 63 191 189 63 191 191 63 142 191 63 150 63 191 157 0 0 0 0 0 0 0 0 0 0 0 0 
0 0 0 0 0 0 0 0 0 0 0 0 0 0 0 0 0 0 0 0 0 0 0 0 0 0 0 0 0 0 0 0 0 0 0 0 0 0 0 0 0 0 0 0 0 191 99 63 191 114 63 191 127 63 191 146 63 191 159 63 191 163 63 191 159 63 191 153 63 191 155 63 191 176 63 191 170 63 191 172 63 191 189 63 116 191 63 82 191 63 63 191 80 63 191 91 63 191 114 78 191 63 191 161 63 191 161 63 191 142 63 191 148 63 114 191 63 63 161 191 176 63 191 191 63 136 191 63 125 191 63 150 63 95 191 129 191 63 0 0 0 0 0 0 0 0 0 0 0 0 
0 0 0 0 0 0 0 0 0 0 0 0 0 0 0 0 0 0 0 0 0 0 0 0 0 0 0 0 0 0 0 0 0 0 0 0 0 0 0 0 0 0 0 0 0 0 0 0 0 0 0 0 0 0 0 0 0 0 0 0 191 157 63 191 191 63 172 191 63 159 191 63 155 191 63 161 191 63 163 191 63 144 191 63 153 191 63 138 191 63 93 191 63 63 191 148 63 191 180 63 191 189 63 174 191 63 191 144 189 191 63 63 191 138 63 70 191 191 63 144 191 63 140 191 63 159 146 63 191 63 180 191 182 191 63 0 0 0 0 0 0 0 0 0 0 0 0 0 0 0 
0 0 0 0 0 0 0 0 0 0 0 0 0 0 0 0 0 0 0 0 0 0 0 0 0 0 0 0 0 0 0 0 0 0 0 0 0 0 0 0 0 0 0 0 0 0 0 0 0 0 0 0 0 0 0 0 0 0 0 0 0 0 0 0 0 0 0 0 0 0 0 0 0 0 0 136 191 63 110 191 63 93 191 63 91 191 63 97 191 63 82 191 63 91 191 63 63 191 93 63 159 191 63 97 191 63 78 191 63 78 191 167 63 191 191 63 148 191 63 144 191 63 140 191 63 191 63 191 191 0 0 0 0 0 0 0 0 0 0 0 0 0 0 0 0 0 0 0 0 0 
0 0 0 0 0 0 0 0 0 0 0 0 0 0 0 0 0 0 0 0 0 0 0 0 0 0 0 0 0 0 0 0 0 0 0 0 0 0 0 0 0 0 0 0 0 0 0 0 0 0 0 0 0 0 0 0 0 0 0 0 0 0 0 0 0 0 0 0 0 0 0 0 0 0 0 0 0 0 0 0 0 0 0 0 0 0 0 0 0 0 63 191 82 63 191 97 63 191 97 63 191 106 63 191 108 63 153 191 119 63 191 165 63 191 191 63 163 191 63 127 142 63 191 63 191 116 0 0 0 0 0 0 0 0 0 0 0 0 0 0 0 0 0 0 0 0 0 0 0 0 
0 0 0 0 0 0 0 0 0 0 0 0 0 0 0 0 0 0 0 0 0 0 0 0 0 0 0 0 0 0 0 0 0 0 0 0 0 0 0 0 0 0 0 0 0 0 0 0 0 0 0 0 0 0 0 0 0 0 0 0 0 0 0 0 0 0 0 0 0 0 0 0 0 0 0 0 0 0 0 0 0 0 0 0 0 0 0 0 0 0 0 0 0 0 0 0 0 0 0 0 0 0 65 191 63 63 191 161 63 191 167 63 125 191 70 63 191 63 119 191 87 191 63 0 0 0 0 0 0 0 0 0 0 0 0 0 0 0 0 0 0 0 0 0 0 0 0 0 0 0 
