P3
50 50
255
0 0 0 0 0 0 0 0 0 0 0 0 0 0 0 0 0 0 0 0 0 0 0 0 0 0 0 0 0 0 0 0 0 0 0 0 0 0 0 0 0 0 0 0 0 0 0 0 0 0 0 0 0 0 0 0 0 0 0 0 0 0 0 0 0 0 0 0 0 0 0 0 0 0 0 0 0 0 0 0 0 0 0 0 0 0 0 0 0 0 0 0 0 0 0 0 0 0 0 0 0 0 0 0 0 0 0 0 0 0 0 0 0 0 0 0 0 0 0 0 0 0 0 0 0 0 0 0 0 0 0 0 0 0 0 0 0 0 0 0 0 0 0 0 0 0 0 0 0 0 
0 0 0 0 0 0 0 0 0 0 0 0 0 0 0 0 0 0 194 156 73 194 160 73 194 164 73 194 170 73 194 180 73 194 188 73 192 194 73 184 194 73 178 194 73 141 194 73 0 0 0 0 0 0 0 0 0 0 0 0 0 0 0 0 0 0 0 0 0 0 0 0 0 0 0 0 0 0 0 0 0 0 0 0 0 0 0 0 0 0 0 0 0 0 0 0 0 0 0 0 0 0 0 0 0 0 0 0 0 0 0 0 0 0 0 0 0 0 0 0 0 0 0 0 0 0 0 0 0 0 0 0 0 0 0 0 0 0 0 0 0 0 0 0 0 0 0 0 0 0 
0 0 0 0 0 0 0 0 0 0 0 0 0 0 0 0 0 0 194 158 73 194 166 73 194 168 73 194 176 73 194 186 73 194 192 73 190 194 73 184 194 73 178 194 73 176 194 73 170 194 73 164 194 73 154 194 73 137 194 73 115 194 73 87 194 73 73 194 109 73 194 164 0 0 0 0 0 0 0 0 0 0 0 0 0 0 0 0 0 0 0 0 0 0 0 0 0 0 0 0 0 0 0 0 0 0 0 0 0 0 0 0 0 0 0 0 0 0 0 0 0 0 0 0 0 0 0 0 0 0 0 0 0 0 0 0 0 0 0 0 0 0 0 0 0 0 0 0 0 0 
0 0 0 0 0 0 0 0 0 0 0 0 0 0 0 194 156 73 194 162 73 194 166 73 194 174 73 194 178 73 194 184 73 194 194 73 190 194 73 180 194 73 178 194 73 172 194 73 172 194 73 164 194 73 158 194 73 146 194 73 123 194 73 101 194 73 73 194 87 73 194 133 73 186 194 73 113 194 85 73 194 105 73 194 103 73 194 91 73 194 77 73 194 0 0 0 0 0 0 0 0 0 0 0 0 0 0 0 0 0 0 0 0 0 0 0 0 0 0 0 0 0 0 0 0 0 0 0 0 0 0 0 0 0 0 0 0 0 0 0 0 0 0 0 0 0 0 0 0 0 
0 0 0 0 0 0 0 0 0 0 0 0 0 0 0 194 158 73 194 164 73 194 170 73 194 176 73 194 182 73 194 186 73 194 194 73 184 194 73 180 194 73 176 194 73 172 194 73 172 194 73 166 194 73 160 194 73 150 194 73 135 194 73 115 194 73 83 194 73 73 194 109 73 194 166 73 117 194 107 73 194 133 73 194 131 73 194 113 73 194 95 73 194 85 73 194 81 73 194 83 73 194 93 73 194 95 73 194 101 73 194 105 73 194 0 0 0 0 0 0 0 0 0 0 0 0 0 0 0 0 0 0 0 0 0 0 0 0 0 0 0 0 0 0 0 0 0 0 0 0 
0 0 0 0 0 0 0 0 0 0 0 0 0 0 0 194 162 73 194 164 73 194 170 73 194 178 73 194 182 73 194 188 73 192 194 73 184 194 73 180 194 73 174 194 73 172 194 73 170 194 73 166 194 73 164 194 73 156 194 73 146 194 73 129 194 73 111 194 73 73 194 75 73 194 125 73 148 194 123 73 194 166 73 194 164 73 194 139 73 194 109 73 194 95 73 194 91 73 194 89 73 194 95 73 194 103 73 194 109 73 194 113 73 194 117 73 194 115 73 194 111 73 194 113 73 194 111 73 194 115 73 194 0 0 0 0 0 0 0 0 0 0 0 0 0 0 0 0 0 0 
0 0 0 0 0 0 0 0 0 0 0 0 0 0 0 194 164 73 194 168 73 194 176 73 194 184 73 194 188 73 194 194 73 188 194 73 180 194 73 178 194 73 172 194 73 170 194 73 170 194 73 168 194 73 166 194 73 160 194 73 154 194 73 146 194 73 131 194 73 115 194 73 81 194 73 73 194 174 115 73 194 186 73 194 194 73 192 172 73 194 135 73 194 107 73 194 97 73 194 93 73 194 99 73 194 107 73 194 113 73 194 125 73 194 123 73 194 121 73 194 119 73 194 119 73 194 117 73 194 113 73 194 117 73 194 129 73 194 133 73 194 0 0 0 0 0 0 0 0 0 
0 0 0 0 0 0 0 0 0 0 0 0 0 0 0 194 166 73 194 174 73 194 180 73 194 188 73 194 194 73 190 194 73 184 194 73 176 194 73 172 194 73 168 194 73 166 194 73 166 194 73 166 194 73 164 194 73 164 194 73 158 194 73 154 194 73 146 194 73 135 194 73 121 194 73 73 194 99 73 75 194 194 73 188 194 73 178 188 73 194 158 73 194 121 73 194 97 73 194 91 73 194 97 73 194 109 73 194 119 73 194 127 73 194 125 73 194 123 73 194 121 73 194 123 73 194 121 73 194 123 73 194 127 73 194 131 73 194 137 73 194 143 73 194 154 73 194 0 0 0 
0 0 0 0 0 0 0 0 0 0 0 0 194 164 73 194 170 73 194 176 73 194 188 73 194 194 73 186 194 73 184 194 73 176 194 73 170 194 73 164 194 73 162 194 73 162 194 73 160 194 73 160 194 73 158 194 73 158 194 73 158 194 73 156 194 73 154 194 73 150 194 73 129 194 73 95 194 73 73 194 188 194 73 172 194 73 164 194 73 184 170 73 194 127 73 194 97 73 194 89 73 194 93 73 194 105 73 194 119 73 194 127 73 194 125 73 194 123 73 194 125 73 194 125 73 194 125 73 194 125 73 194 131 73 194 139 73 194 146 73 194 154 73 194 156 73 194 164 73 194 
0 0 0 0 0 0 0 0 0 0 0 0 194 166 73 194 172 73 194 180 73 194 190 73 188 194 73 180 194 73 178 194 73 170 194 73 162 194 73 158 194 73 152 194 73 154 194 73 150 194 73 152 194 73 152 194 73 150 194 73 154 194 73 152 194 73 152 194 73 146 194 73 129 194 73 99 194 73 73 194 158 186 73 194 194 73 172 194 73 186 168 73 194 127 73 194 91 73 194 83 73 194 89 73 194 103 73 194 115 73 194 121 73 194 125 73 194 121 73 194 121 73 194 123 73 194 129 73 194 131 73 194 137 73 194 141 73 194 154 73 194 164 73 194 170 73 194 166 73 194 
0 0 0 0 0 0 0 0 0 0 0 0 194 168 73 194 176 73 194 186 73 194 192 73 186 194 73 178 194 73 170 194 73 160 194 73 154 194 73 148 194 73 143 194 73 139 194 73 141 194 73 137 194 73 141 194 73 146 194 73 146 194 73 146 194 73 141 194 73 137 194 73 127 194 73 73 194 73 73 156 194 174 73 194 194 73 176 194 73 190 168 73 194 131 73 194 103 73 194 89 73 194 85 73 194 103 73 194 107 73 194 121 73 194 121 73 194 121 73 194 121 73 194 125 73 194 125 73 194 133 73 194 137 73 194 143 73 194 152 73 194 158 73 194 164 73 194 172 73 194 
0 0 0 0 0 0 0 0 0 0 0 0 194 172 73 194 178 73 194 188 73 190 194 73 182 194 73 170 194 73 164 194 73 152 194 73 143 194 73 133 194 73 131 194 73 127 194 73 125 194 73 123 194 73 125 194 73 127 194 73 131 194 73 133 194 73 129 194 73 125 194 73 97 194 73 73 194 115 73 117 194 162 73 194 194 73 192 188 73 194 164 73 194 133 73 194 101 73 194 85 73 194 83 73 194 89 73 194 99 73 194 113 73 194 119 73 194 119 73 194 117 73 194 125 73 194 129 73 194 135 73 194 143 73 194 154 73 194 168 73 194 178 73 194 182 73 194 182 73 194 
0 0 0 0 0 0 0 0 0 0 0 0 194 170 73 194 182 73 194 190 73 188 194 73 178 194 73 168 194 73 158 194 73 143 194 73 133 194 73 123 194 73 119 194 73 115 194 73 111 194 73 107 194 73 107 194 73 109 194 73 117 194 73 119 194 73 111 194 73 103 194 73 73 194 85 73 194 141 73 119 194 148 73 194 180 73 194 178 73 194 156 73 194 125 73 194 95 73 194 81 73 194 79 73 194 87 73 194 95 73 194 109 73 194 115 73 194 119 73 194 117 73 194 123 73 194 129 73 194 139 73 194 154 73 194 174 73 194 192 73 194 194 73 180 194 73 178 194 73 194 
0 0 0 0 0 0 0 0 0 0 0 0 194 172 73 194 186 73 194 192 73 186 194 73 174 194 73 164 194 73 154 194 73 141 194 73 125 194 73 117 194 73 111 194 73 103 194 73 95 194 73 91 194 73 87 194 73 89 194 73 93 194 73 101 194 73 95 194 73 75 194 73 73 194 115 73 194 168 73 107 194 127 73 194 160 73 194 162 73 194 148 73 194 121 73 194 95 73 194 83 73 194 83 73 194 89 73 194 97 73 194 109 73 194 119 73 194 123 73 194 123 73 194 125 73 194 127 73 194 141 73 194 156 73 194 172 73 194 184 73 194 192 73 194 194 73 190 194 73 194 
0 0 0 0 0 0 0 0 0 194 156 73 194 174 73 194 184 73 192 194 73 184 194 73 174 194 73 164 194 73 152 194 73 137 194 73 121 194 73 109 194 73 101 194 73 91 194 73 85 194 73 77 194 73 73 194 79 73 194 79 73 194 79 73 194 77 73 194 77 73 194 99 73 194 148 73 190 194 73 107 194 105 73 194 141 73 194 148 73 194 135 73 194 117 73 194 101 73 194 83 73 194 87 73 194 91 73 194 99 73 194 113 73 194 121 73 194 131 73 194 131 73 194 131 73 194 133 73 194 146 73 194 162 73 194 176 73 194 186 73 194 194 73 192 194 73 162 194 73 180 
0 0 0 0 0 0 0 0 0 194 164 73 194 176 73 194 182 73 190 194 73 182 194 73 172 194 73 166 194 73 148 194 73 133 194 73 119 194 73 107 194 73 97 194 73 87 194 73 75 194 73 73 194 83 73 194 91 73 194 101 73 194 105 73 194 107 73 194 115 73 194 137 73 194 168 73 168 194 73 111 194 89 73 194 123 73 194 131 73 194 127 73 194 115 73 194 101 73 194 95 73 194 95 73 194 97 73 194 107 73 194 117 73 194 127 73 194 135 73 194 141 73 194 141 73 194 146 73 194 156 73 194 168 73 194 176 73 194 188 73 194 194 73 164 194 73 146 194 73 146 
0 0 0 0 0 0 0 0 0 194 168 73 194 176 73 194 184 73 194 194 73 186 194 73 178 194 73 166 194 73 150 194 73 135 194 73 121 194 73 105 194 73 95 194 73 83 194 73 73 194 75 73 194 89 73 194 105 73 194 115 73 194 127 73 194 133 73 194 146 73 194 164 73 194 190 73 160 194 73 115 194 73 73 194 103 73 194 119 73 194 121 73 194 113 73 194 109 73 194 107 73 194 105 73 194 115 73 194 115 73 194 121 73 194 135 73 194 141 73 194 148 73 194 152 73 194 154 73 194 162 73 194 166 73 194 176 73 194 188 73 194 194 73 180 194 73 154 194 73 150 
0 0 0 0 0 0 0 0 0 194 168 73 194 172 73 194 180 73 194 190 73 186 194 73 182 194 73 168 194 73 150 194 73 137 194 73 123 194 73 107 194 73 93 194 73 81 194 73 73 194 75 73 194 93 73 194 105 73 194 123 73 194 133 73 194 146 73 194 160 73 194 178 73 192 194 73 160 194 73 125 194 73 89 194 87 73 194 103 73 194 113 73 194 111 73 194 111 73 194 111 73 194 115 73 194 121 73 194 127 73 194 131 73 194 141 73 194 146 73 194 154 73 194 156 73 194 160 73 194 164 73 194 168 73 194 174 73 194 180 73 194 192 73 194 194 73 190 194 73 194 
0 0 0 0 0 0 0 0 0 194 166 73 194 170 73 194 178 73 194 184 73 190 194 73 182 194 73 170 194 73 154 194 73 137 194 73 123 194 73 111 194 73 99 194 73 89 194 73 73 194 73 73 194 91 73 194 107 73 194 121 73 194 133 73 194 146 73 194 158 73 194 168 73 194 188 73 172 194 73 135 194 73 103 194 73 75 194 89 73 194 101 73 194 107 73 194 111 73 194 113 73 194 119 73 194 123 73 194 131 73 194 133 73 194 141 73 194 148 73 194 156 73 194 154 73 194 160 73 194 164 73 194 176 73 194 174 73 194 176 73 194 182 73 194 182 73 194 186 73 194 
0 0 0 0 0 0 0 0 0 194 162 73 194 168 73 194 172 73 194 180 73 194 192 73 186 194 73 174 194 73 156 194 73 141 194 73 123 194 73 115 194 73 105 194 73 91 194 73 79 194 73 73 194 83 73 194 101 73 194 117 73 194 127 73 194 139 73 194 143 73 194 150 73 194 164 73 194 194 73 156 194 73 127 194 73 95 194 73 73 194 89 73 194 99 73 194 107 73 194 111 73 194 121 73 194 121 73 194 127 73 194 131 73 194 141 73 194 146 73 194 152 73 194 158 73 194 158 73 194 160 73 194 166 73 194 172 73 194 176 73 194 178 73 194 182 73 194 182 73 194 
0 0 0 0 0 0 0 0 0 194 164 73 194 168 73 194 174 73 194 180 73 194 188 73 190 194 73 180 194 73 160 194 73 148 194 73 131 194 73 119 194 73 107 194 73 99 194 73 89 194 73 73 194 73 73 194 89 73 194 107 73 194 119 73 194 125 73 194 123 73 194 119 73 194 133 73 194 168 73 184 194 73 152 194 73 119 194 73 93 194 73 75 194 85 73 194 95 73 194 103 73 194 111 73 194 119 73 194 117 73 194 131 73 194 137 73 194 141 73 194 146 73 194 152 73 194 156 73 194 158 73 194 164 73 194 172 73 194 170 73 194 174 73 194 174 73 194 176 73 194 
0 0 0 0 0 0 194 154 73 194 162 73 194 162 73 194 170 73 194 176 73 194 184 73 192 194 73 180 194 73 164 194 73 150 194 73 137 194 73 131 194 73 117 194 73 107 194 73 97 194 73 81 194 73 73 194 83 73 194 93 73 194 103 73 194 111 73 194 113 73 194 107 73 194 111 73 194 141 73 194 172 73 182 194 73 148 194 73 117 194 73 97 194 73 77 194 79 73 194 93 73 194 103 73 194 111 73 194 119 73 194 123 73 194 127 73 194 135 73 194 137 73 194 150 73 194 152 73 194 156 73 194 154 73 194 158 73 194 160 73 194 166 73 194 166 73 194 170 73 194 
0 0 0 0 0 0 194 156 73 194 160 73 194 164 73 194 166 73 194 174 73 194 180 73 194 190 73 186 194 73 170 194 73 156 194 73 139 194 73 133 194 73 127 194 73 117 194 73 107 194 73 91 194 73 75 194 73 73 194 85 73 194 95 73 194 101 73 194 103 73 194 99 73 194 97 73 194 111 73 194 139 73 194 174 73 180 194 73 148 194 73 121 194 73 99 194 73 83 194 79 73 194 93 73 194 99 73 194 109 73 194 111 73 194 117 73 194 125 73 194 129 73 194 135 73 194 141 73 194 148 73 194 150 73 194 154 73 194 158 73 194 158 73 194 160 73 194 123 73 194 
0 0 0 0 0 0 194 156 73 194 154 73 194 160 73 194 166 73 194 176 73 194 182 73 194 188 73 184 194 73 172 194 73 156 194 73 150 194 73 139 194 73 131 194 73 123 194 73 115 194 73 101 194 73 83 194 73 73 194 77 73 194 85 73 194 93 73 194 95 73 194 93 73 194 87 73 194 89 73 194 103 73 194 137 73 194 168 73 180 194 73 150 194 73 125 194 73 103 194 73 87 194 77 73 194 89 73 194 95 73 194 105 73 194 105 73 194 113 73 194 115 73 194 123 73 194 127 73 194 133 73 194 137 73 194 146 73 194 150 73 194 152 73 194 152 73 194 0 0 0 
0 0 0 0 0 0 194 154 73 194 150 73 194 162 73 194 164 73 194 172 73 194 180 73 194 190 73 186 194 73 176 194 73 158 194 73 150 194 73 143 194 73 135 194 73 127 194 73 119 194 73 105 194 73 91 194 73 79 194 73 73 194 75 73 194 85 73 194 89 73 194 83 73 194 75 81 194 73 73 194 75 73 194 97 73 194 131 73 194 164 73 182 194 73 156 194 73 129 194 73 107 194 73 89 194 73 77 194 79 73 194 81 73 194 87 73 194 97 73 194 103 73 194 107 73 194 113 73 194 119 73 194 131 73 194 135 73 194 139 73 194 141 73 194 143 73 194 0 0 0 
0 0 0 0 0 0 194 156 73 194 154 73 194 158 73 194 164 73 194 172 73 194 176 73 194 188 73 188 194 73 174 194 73 160 194 73 150 194 73 141 194 73 139 194 73 129 194 73 121 194 73 111 194 73 97 194 73 81 194 73 75 194 73 73 194 77 73 194 81 73 194 79 77 194 73 97 194 73 99 194 73 81 194 73 73 194 93 73 194 125 73 194 162 73 186 194 73 162 194 73 133 194 73 111 194 73 99 194 73 91 194 73 81 194 73 75 194 83 73 194 89 73 194 93 73 194 99 73 194 107 73 194 119 73 194 125 73 194 125 73 194 131 73 194 135 73 194 0 0 0 
0 0 0 0 0 0 194 148 73 194 154 73 194 156 73 194 168 73 194 172 73 194 178 73 194 186 73 190 194 73 176 194 73 166 194 73 154 194 73 141 194 73 139 194 73 129 194 73 121 194 73 113 194 73 101 194 73 89 194 73 81 194 73 73 194 75 73 194 75 75 194 73 83 194 73 103 194 73 111 194 73 103 194 73 81 194 73 73 194 93 73 194 119 73 194 152 73 194 186 73 166 194 73 139 194 73 127 194 73 113 194 73 107 194 73 97 194 73 89 194 73 79 194 75 73 194 81 73 194 89 73 194 99 73 194 107 73 194 109 73 194 113 73 194 119 73 194 0 0 0 
0 0 0 194 146 73 194 146 73 194 154 73 194 152 73 194 162 73 194 172 73 194 176 73 194 188 73 188 194 73 178 194 73 164 194 73 156 194 73 146 194 73 137 194 73 127 194 73 119 194 73 113 194 73 103 194 73 91 194 73 83 194 73 77 194 73 73 194 77 77 194 73 87 194 73 103 194 73 111 194 73 113 194 73 107 194 73 91 194 73 73 194 79 73 194 105 73 194 137 73 194 182 73 174 194 73 156 194 73 150 194 73 139 194 73 131 194 73 121 194 73 113 194 73 103 194 73 87 194 73 81 194 73 73 194 81 73 194 91 73 194 95 73 194 93 73 194 0 0 0 
0 0 0 194 143 73 194 143 73 194 150 73 194 154 73 194 162 73 194 170 73 194 178 73 194 188 73 194 194 73 180 194 73 166 194 73 156 194 73 146 194 73 137 194 73 127 194 73 121 194 73 115 194 73 107 194 73 95 194 73 83 194 73 75 194 73 73 194 73 77 194 73 85 194 73 101 194 73 107 194 73 113 194 73 113 194 73 109 194 73 103 194 73 83 194 73 73 194 95 73 194 127 73 194 166 73 194 188 73 186 194 73 176 194 73 170 194 73 162 194 73 150 194 73 137 194 73 123 194 73 113 194 73 101 194 73 93 194 73 83 194 73 83 194 73 111 194 0 0 0 
0 0 0 194 141 73 194 146 73 194 146 73 194 154 73 194 156 73 194 166 73 194 174 73 194 182 73 194 194 73 182 194 73 170 194 73 162 194 73 152 194 73 141 194 73 133 194 73 127 194 73 119 194 73 109 194 73 97 194 73 83 194 73 75 194 73 73 194 77 73 194 73 79 194 73 93 194 73 103 194 73 111 194 73 115 194 73 113 194 73 109 194 73 105 194 73 93 194 73 73 194 83 73 194 111 73 194 135 73 194 156 73 194 166 73 194 178 73 194 184 73 194 188 73 188 194 73 170 194 73 156 194 73 148 194 73 137 194 73 125 194 73 117 194 73 172 194 0 0 0 
0 0 0 194 141 73 194 143 73 194 143 73 194 150 73 194 156 73 194 164 73 194 172 73 194 180 73 194 186 73 188 194 73 178 194 73 168 194 73 154 194 73 146 194 73 139 194 73 129 194 73 123 194 73 113 194 73 99 194 73 85 194 73 77 194 73 73 194 77 73 194 75 73 194 73 83 194 73 95 194 73 105 194 73 115 194 73 115 194 73 115 194 73 115 194 73 107 194 73 99 194 73 79 194 73 73 194 83 73 194 93 73 194 115 73 194 123 73 194 129 73 194 125 73 194 135 73 194 164 73 194 176 73 194 180 73 192 194 73 180 194 73 176 194 73 194 156 0 0 0 
0 0 0 194 135 73 194 135 73 194 143 73 194 148 73 194 154 73 194 158 73 194 168 73 194 174 73 194 184 73 192 194 73 182 194 73 172 194 73 162 194 73 150 194 73 139 194 73 131 194 73 125 194 73 117 194 73 105 194 73 89 194 73 79 194 73 73 194 75 73 194 79 73 194 79 75 194 73 87 194 73 97 194 73 107 194 73 117 194 73 121 194 73 121 194 73 119 194 73 115 194 73 109 194 73 101 194 73 95 194 73 87 194 73 77 194 73 73 194 75 73 194 77 73 194 85 73 194 99 73 194 101 73 194 109 73 194 129 73 194 137 73 194 146 73 194 97 0 0 0 
0 0 0 194 135 73 194 137 73 194 141 73 194 146 73 194 150 73 194 160 73 194 164 73 194 170 73 194 176 73 194 192 73 186 194 73 176 194 73 166 194 73 154 194 73 141 194 73 133 194 73 129 194 73 121 194 73 111 194 73 93 194 73 79 194 73 73 194 75 73 194 79 73 194 79 73 194 73 79 194 73 89 194 73 99 194 73 113 194 73 121 194 73 127 194 73 127 194 73 129 194 73 125 194 73 125 194 73 125 194 73 125 194 73 119 194 73 115 194 73 107 194 73 105 194 73 101 194 73 101 194 73 99 194 73 89 194 73 89 194 73 73 194 83 107 194 73 0 0 0 
0 0 0 194 131 73 194 133 73 194 141 73 194 141 73 194 150 73 194 154 73 194 162 73 194 170 73 194 174 73 194 182 73 194 192 73 184 194 73 176 194 73 160 194 73 152 194 73 139 194 73 131 194 73 125 194 73 117 194 73 103 194 73 89 194 73 75 194 73 73 194 75 73 194 77 73 194 81 73 194 75 81 194 73 93 194 73 107 194 73 117 194 73 129 194 73 131 194 73 133 194 73 137 194 73 141 194 73 139 194 73 143 194 73 141 194 73 139 194 73 141 194 73 146 194 73 146 194 73 143 194 73 148 194 73 152 194 73 156 194 73 125 194 73 73 194 89 0 0 0 
0 0 0 194 125 73 194 125 73 194 133 73 194 139 73 194 143 73 194 152 73 194 156 73 194 166 73 194 168 73 194 174 73 194 184 73 194 194 73 180 194 73 172 194 73 156 194 73 148 194 73 141 194 73 133 194 73 127 194 73 115 194 73 97 194 73 83 194 73 75 194 73 73 194 79 73 194 79 73 194 79 77 194 73 89 194 73 101 194 73 115 194 73 125 194 73 133 194 73 150 194 73 148 194 73 152 194 73 156 194 73 158 194 73 164 194 73 168 194 73 174 194 73 174 194 73 176 194 73 176 194 73 182 194 73 194 192 73 194 178 73 188 194 73 0 0 0 0 0 0 
0 0 0 194 121 73 194 123 73 194 129 73 194 135 73 194 141 73 194 141 73 194 148 73 194 154 73 194 160 73 194 172 73 194 176 73 194 184 73 192 194 73 182 194 73 168 194 73 156 194 73 148 194 73 143 194 73 135 194 73 123 194 73 107 194 73 89 194 73 77 194 73 73 194 77 73 194 83 73 194 83 73 194 75 85 194 73 93 194 73 107 194 73 117 194 73 129 194 73 139 194 73 152 194 73 158 194 73 160 194 73 170 194 73 176 194 73 182 194 73 190 194 73 194 194 73 194 190 73 194 186 73 194 178 73 194 160 73 194 148 73 194 150 73 0 0 0 0 0 0 
0 0 0 194 113 73 194 117 73 194 125 73 194 127 73 194 133 73 194 137 73 194 141 73 194 148 73 194 154 73 194 160 73 194 170 73 194 178 73 194 184 73 192 194 73 176 194 73 162 194 73 154 194 73 150 194 73 148 194 73 135 194 73 119 194 73 97 194 73 79 194 73 73 194 77 73 194 83 73 194 89 73 194 83 75 194 73 89 194 73 99 194 73 111 194 73 123 194 73 137 194 73 150 194 73 160 194 73 164 194 73 172 194 73 182 194 73 186 194 73 194 192 73 194 188 73 194 182 73 194 174 73 194 162 73 194 148 73 194 133 73 194 121 73 0 0 0 0 0 0 
0 0 0 194 105 73 194 109 73 194 119 73 194 125 73 194 125 73 194 133 73 194 135 73 194 141 73 194 150 73 194 158 73 194 162 73 194 170 73 194 174 73 194 188 73 184 194 73 170 194 73 156 194 73 154 194 73 154 194 73 141 194 73 129 194 73 107 194 73 87 194 73 75 194 73 73 194 85 73 194 91 73 194 91 73 194 81 83 194 73 93 194 73 105 194 73 117 194 73 131 194 73 146 194 73 154 194 73 164 194 73 170 194 73 182 194 73 190 194 73 194 188 73 194 184 73 194 176 73 194 166 73 194 162 73 194 150 73 194 137 73 194 127 73 0 0 0 0 0 0 
0 0 0 194 97 73 194 103 73 194 113 73 194 119 73 194 123 73 194 125 73 194 127 73 194 135 73 194 141 73 194 146 73 194 156 73 194 164 73 194 168 73 194 180 73 194 194 73 188 194 73 164 194 73 152 194 73 154 194 73 148 194 73 131 194 73 111 194 73 89 194 73 73 194 77 73 194 87 73 194 97 73 194 97 73 194 89 75 194 73 91 194 73 101 194 73 111 194 73 123 194 73 137 194 73 150 194 73 158 194 73 164 194 73 178 194 73 188 194 73 194 190 73 194 182 73 194 176 73 194 170 73 194 162 73 194 156 73 194 148 73 194 139 73 0 0 0 0 0 0 
0 0 0 194 89 73 194 99 73 194 103 73 194 109 73 194 113 73 194 117 73 194 121 73 194 129 73 194 133 73 194 146 73 194 152 73 194 156 73 194 164 73 194 176 73 194 184 73 184 194 73 154 194 73 148 194 73 146 194 73 146 194 73 131 194 73 113 194 73 93 194 73 73 194 79 73 194 89 73 194 95 73 194 99 73 194 95 73 194 79 85 194 73 93 194 73 105 194 73 117 194 73 129 194 73 141 194 73 156 194 73 160 194 73 172 194 73 188 194 73 194 190 73 194 180 73 194 180 73 194 176 73 194 170 73 194 160 73 194 154 73 194 154 73 0 0 0 0 0 0 
0 0 0 194 81 73 194 93 73 194 95 73 194 101 73 194 107 73 194 113 73 194 117 73 194 123 73 194 131 73 194 139 73 194 148 73 194 158 73 194 160 73 194 172 73 194 184 73 186 194 73 166 194 73 148 194 73 135 194 73 131 194 73 125 194 73 109 194 73 87 194 73 73 194 79 73 194 93 73 194 99 73 194 101 73 194 103 73 194 87 77 194 73 91 194 73 101 194 73 111 194 73 121 194 73 133 194 73 150 194 73 160 194 73 166 194 73 180 194 73 194 194 73 194 188 73 194 184 73 194 178 73 194 174 73 194 172 73 194 152 73 194 154 73 0 0 0 0 0 0 
0 0 0 194 77 73 194 89 73 194 95 73 194 97 73 194 101 73 194 109 73 194 117 73 194 125 73 194 135 73 194 141 73 194 143 73 194 158 73 194 158 73 194 170 73 194 180 73 192 194 73 162 194 73 143 194 73 129 194 73 119 194 73 113 194 73 101 194 73 83 194 73 73 194 81 73 194 91 73 194 99 73 194 101 73 194 101 73 194 91 73 194 77 83 194 73 95 194 73 105 194 73 117 194 73 127 194 73 146 194 73 156 194 73 162 194 73 174 194 73 184 194 73 194 188 73 194 182 73 194 180 73 194 174 73 194 170 73 194 164 73 194 156 73 0 0 0 0 0 0 
0 0 0 0 0 0 194 79 73 194 89 73 194 93 73 194 103 73 194 107 73 194 115 73 194 125 73 194 131 73 194 139 73 194 146 73 194 156 73 194 160 73 194 170 73 194 176 73 194 186 73 170 194 73 141 194 73 121 194 73 109 194 73 103 194 73 89 194 73 79 194 73 73 194 81 73 194 91 73 194 97 73 194 101 73 194 99 73 194 93 73 194 77 79 194 73 87 194 73 99 194 73 111 194 73 125 194 73 137 194 73 152 194 73 160 194 73 174 194 73 184 194 73 194 194 73 194 186 73 194 180 73 194 178 73 194 174 73 194 166 73 194 158 73 0 0 0 0 0 0 
0 0 0 0 0 0 0 0 0 0 0 0 194 89 73 194 97 73 194 101 73 194 115 73 194 123 73 194 131 73 194 135 73 194 143 73 194 156 73 194 162 73 194 166 73 194 176 73 194 188 73 182 194 73 146 194 73 121 194 73 109 194 73 99 194 73 93 194 73 81 194 73 73 194 79 73 194 91 73 194 91 73 194 95 73 194 95 73 194 93 73 194 83 75 194 73 81 194 73 95 194 73 107 194 73 121 194 73 131 194 73 146 194 73 156 194 73 170 194 73 182 194 73 190 194 73 194 188 73 194 180 73 194 178 73 194 172 73 194 166 73 194 160 73 0 0 0 0 0 0 
0 0 0 0 0 0 0 0 0 0 0 0 0 0 0 0 0 0 194 97 73 194 117 73 148 194 73 133 194 73 168 194 73 194 184 73 194 154 73 194 162 73 194 166 73 194 178 73 194 192 73 178 194 73 154 194 73 127 194 73 111 194 73 101 194 73 91 194 73 83 194 73 73 194 75 73 194 81 73 194 85 73 194 89 73 194 91 73 194 93 73 194 91 73 194 79 79 194 73 89 194 73 101 194 73 117 194 73 131 194 73 143 194 73 154 194 73 166 194 73 180 194 73 186 194 73 194 188 73 194 182 73 194 176 73 194 170 73 194 168 73 194 174 73 0 0 0 0 0 0 
0 0 0 0 0 0 0 0 0 0 0 0 0 0 0 0 0 0 0 0 0 0 0 0 0 0 0 0 0 0 0 0 0 194 139 73 194 164 73 194 182 73 190 194 73 174 194 73 158 194 73 139 194 73 154 194 73 141 194 73 117 194 73 105 194 73 97 194 73 91 194 73 77 194 73 73 194 75 73 194 81 73 194 83 73 194 87 73 194 93 73 194 91 73 194 83 73 194 73 87 194 73 99 194 73 113 194 73 123 194 73 135 194 73 150 194 73 162 194 73 176 194 73 184 194 73 194 194 73 194 184 73 194 180 73 194 174 73 194 172 73 0 0 0 0 0 0 0 0 0 
0 0 0 0 0 0 0 0 0 0 0 0 0 0 0 0 0 0 0 0 0 0 0 0 0 0 0 0 0 0 0 0 0 0 0 0 0 0 0 0 0 0 0 0 0 0 0 0 0 0 0 0 0 0 194 168 73 168 194 73 143 194 73 121 194 73 105 194 73 95 194 73 79 194 73 73 194 73 73 194 79 73 194 79 73 194 87 73 194 89 73 194 91 73 194 87 73 194 77 83 194 73 95 194 73 109 194 73 117 194 73 133 194 73 146 194 73 162 194 73 174 194 73 182 194 73 188 194 73 194 190 73 194 178 73 194 174 73 194 172 73 0 0 0 0 0 0 0 0 0 
0 0 0 0 0 0 0 0 0 0 0 0 0 0 0 0 0 0 0 0 0 0 0 0 0 0 0 0 0 0 0 0 0 0 0 0 0 0 0 0 0 0 0 0 0 0 0 0 0 0 0 0 0 0 0 0 0 0 0 0 0 0 0 0 0 0 0 0 0 0 0 0 0 0 0 192 194 73 133 194 73 87 194 73 73 194 79 73 194 85 73 194 83 73 194 85 73 194 87 73 194 75 87 194 73 101 194 73 113 194 73 125 194 73 139 194 73 156 194 73 168 194 73 178 194 73 186 194 73 194 194 73 194 182 73 194 176 73 194 172 73 0 0 0 0 0 0 0 0 0 
0 0 0 0 0 0 0 0 0 0 0 0 0 0 0 0 0 0 0 0 0 0 0 0 0 0 0 0 0 0 0 0 0 0 0 0 0 0 0 0 0 0 0 0 0 0 0 0 0 0 0 0 0 0 0 0 0 0 0 0 0 0 0 0 0 0 0 0 0 0 0 0 0 0 0 0 0 0 0 0 0 0 0 0 0 0 0 0 0 0 0 0 0 194 168 73 164 194 73 107 194 73 73 194 87 91 194 73 103 194 73 121 194 73 135 194 73 150 194 73 162 194 73 170 194 73 180 194 73 190 194 73 194 188 73 194 180 73 194 172 73 0 0 0 0 0 0 0 0 0 
0 0 0 0 0 0 0 0 0 0 0 0 0 0 0 0 0 0 0 0 0 0 0 0 0 0 0 0 0 0 0 0 0 0 0 0 0 0 0 0 0 0 0 0 0 0 0 0 0 0 0 0 0 0 0 0 0 0 0 0 0 0 0 0 0 0 0 0 0 0 0 0 0 0 0 0 0 0 0 0 0 0 0 0 0 0 0 0 0 0 0 0 0 0 0 0 0 0 0 0 0 0 0 0 0 0 0 0 0 0 0 0 0 0 192 194 73 135 194 73 146 194 73 164 194 73 176 194 73 184 194 73 194 194 73 194 186 73 194 180 73 0 0 0 0 0 0 0 0 0 
